<?xml version="1.0" encoding="utf-8"?>
<!-- Generator: Adobe Illustrator 20.1.0, SVG Export Plug-In . SVG Version: 6.00 Build 0)  -->
<svg version="1.1" id="Capa_1" xmlns="http://www.w3.org/2000/svg" xmlns:xlink="http://www.w3.org/1999/xlink" x="0px" y="0px"
	 viewBox="0 0 750 770.1" style="enable-background:new 0 0 750 770.1;" xml:space="preserve">
<style type="text/css">
	.st0{fill-rule:evenodd;clip-rule:evenodd;fill:#333B48;}
	.st1{fill-rule:evenodd;clip-rule:evenodd;fill:#FFFFFF;}
	.st2{opacity:0.3;fill-rule:evenodd;clip-rule:evenodd;fill:#FFFFFF;}
	.st3{opacity:5.000000e-02;fill-rule:evenodd;clip-rule:evenodd;fill:#FFFFFF;}
	.st4{fill-rule:evenodd;clip-rule:evenodd;fill:#354E70;}
	.st5{fill-rule:evenodd;clip-rule:evenodd;fill:#5D8BA3;}
	.st6{fill-rule:evenodd;clip-rule:evenodd;fill:#3A5B6D;}
	.st7{fill-rule:evenodd;clip-rule:evenodd;fill:#B5A07F;}
	.st8{fill-rule:evenodd;clip-rule:evenodd;fill:#ECD8B7;}
	.st9{fill-rule:evenodd;clip-rule:evenodd;fill:#5D8BA3;stroke:#5D8BA3;stroke-width:0.3545;stroke-miterlimit:22.9256;}
	.st10{fill-rule:evenodd;clip-rule:evenodd;fill:#93BCCE;}
	.st11{fill-rule:evenodd;clip-rule:evenodd;fill:#F7EBDA;}
	.st12{fill-rule:evenodd;clip-rule:evenodd;fill:#719FB5;}
	.st13{fill:#A58C66;}
	.st14{fill-rule:evenodd;clip-rule:evenodd;fill:#96BB51;}
	.st15{fill-rule:evenodd;clip-rule:evenodd;fill:#B5D970;}
	.st16{fill:#647279;}
	.st17{fill:#FFFFFF;}
	.st18{fill-rule:evenodd;clip-rule:evenodd;fill:#D46850;}
	.st19{fill-rule:evenodd;clip-rule:evenodd;fill:#AE4730;}
	.st20{fill-rule:evenodd;clip-rule:evenodd;fill:#3B484E;}
	.st21{fill-rule:evenodd;clip-rule:evenodd;fill:#91A1A8;}
	.st22{fill-rule:evenodd;clip-rule:evenodd;fill:#C5E9E1;}
	.st23{fill-rule:evenodd;clip-rule:evenodd;fill:#EDC034;}
</style>
<rect x="0" class="st0" width="750" height="770.1"/>
<path class="st1" d="M703.5,577.7c0-9.1-7.4-16.6-16.6-16.6c-2.1,0-4.2,0.4-6.1,1.2c-2.9-4.7-8.1-7.8-14.1-7.8
	c-9.1,0-16.6,7.4-16.6,16.6c0,0.6,0,1.2,0.1,1.7c-0.3,0-0.7-0.1-1-0.1c-4.5,0-8.2,3.7-8.2,8.1c0,0,0,0.2,0,0.2
	c-9,0.8-8.4,13.9,1,13.9c43.2,0,1.7,0,44.9,0c0,0,0-0.3,0-0.3C696,594.6,703.5,586.9,703.5,577.7z"/>
<path class="st2" d="M732.3,214c0-13.7-11.2-25-25-25c-3.2,0-6.3,0.6-9.2,1.8c-4.4-7-12.3-11.7-21.2-11.7c-13.7,0-25,11.2-25,25
	c0,0.9,0,1.7,0.1,2.6c-0.5-0.1-1.2-0.1-1.7-0.1c-6.8,0-12.5,5.5-12.5,12.3c0,0,0-0.6,0-0.6c-11,1.2-12.4,18.8,1.8,18.8
	c65,0,2.6,0,67.5,0C707.4,237,732.3,235.1,732.3,214z"/>
<path class="st3" d="M613.3,387c0-13.7-11.2-25-25-25c-3.2,0-6.3,0.6-9.2,1.8c-4.4-7-12.3-11.7-21.2-11.7c-13.7,0-25,11.2-25,25
	c0,0.9,0,1.7,0.1,2.6c-0.5-0.1-1.2-0.1-1.7-0.1c-6.8,0-12.5,5.5-12.5,12.3c0,0,0-0.6,0-0.6c-11,1.2-12.4,18.8,1.8,18.8
	c65,0,2.6,0,67.5,0C588.4,410,613.3,408.1,613.3,387z"/>
<path class="st1" d="M494,503c0,0-0.8,0-1.1,0c0.1,0,0.1-1.4,0.1-2c0-7.7-6.3-14-13.9-14c-1.2,0-2.5,0.1-3.6,0.4
	c-2.3-6.7-8.6-11.5-16-11.5c-9.3,0-16.9,7.6-16.9,16.9c0,0.6,0,1.1,0.1,1.7c-0.1,0-0.2,0-0.2,0c-6,0-11,4.9-11,11c0,6,4.9,11,11,11
	c1.1,0,2.1-0.3,3.1-0.6c0.8,0.3,1.8,0.3,2.8,0.3c43.9,0,0.6,0,45.6,0C505,516,505,503,494,503z"/>
<path class="st1" d="M92,546C92,546,92,546.1,92,546c0-4.6-3.7-8.3-8.4-8.3c-0.3,0-0.7,0-1,0.1c0.1-0.6,0.1-1.2,0.1-1.8
	c0-9.4-7.7-17-17-17c-6.1,0-11.4,3.2-14.4,8c-1.9-0.8-4-1.2-6.3-1.2c-9.4,0-17,7.7-17,17c0,9.4,7.6,17.1,17,17.1c0,0,0,0,0,0
	c44.4,0,1.8,0,46.1,0C100.8,560,101,546.8,92,546z"/>
<path class="st3" d="M292,326.9C292,326.9,292,326.9,292,326.9c0-3.1-2.5-5.6-5.6-5.6c-0.2,0-0.4,0-0.6,0.1c0-0.4,0.1-0.8,0.1-1.2
	c0-6.4-5.2-11.6-11.6-11.6c-4.1,0-7.8,2.2-9.8,5.5c-1.3-0.5-2.8-0.8-4.3-0.8c-6.4,0-11.6,5.2-11.6,11.6c0,10.5,11.6,11.2,11.6,11.2
	c30.2,0,1.2,0,31.4,0C298.2,336,299,327.4,292,326.9z"/>
<path class="st2" d="M109,256.7C109,256.7,109,256.8,109,256.7c0-4.3-3.2-7.8-7.6-7.8c-0.3,0-0.5,0-0.8,0.1c0.1-0.6,0.2-1.1,0.2-1.7
	c0-8.9-7.2-16.1-16-16.1c-5.7,0-10.8,3-13.6,7.6c-1.8-0.7-3.8-1.1-5.9-1.1c-8.9,0-16.1,7.5-16.1,16.4c0,14.6,16.1,15.9,16.1,15.9
	c41.9,0,1.7,0,43.5,0C118,270,119,257.4,109,256.7z"/>
<rect x="541.2" y="532.5" class="st4" width="93.1" height="60.1"/>
<rect x="55.5" y="579.4" class="st5" width="10.3" height="38.5"/>
<rect x="60.7" y="579.4" class="st6" width="5.2" height="38.5"/>
<rect x="541.2" y="519.3" class="st5" width="93.1" height="38.5"/>
<polygon class="st4" points="587.8,524.5 562.2,547 613.3,547 "/>
<rect x="541.2" y="592.6" class="st4" width="93.1" height="90.7"/>
<polygon class="st7" points="587.8,530 568.4,547 607.2,547 "/>
<rect x="541.2" y="660.9" class="st4" width="93.1" height="37.9"/>
<rect x="541.2" y="652.4" class="st8" width="93.1" height="8.5"/>
<g>
	<rect x="609.1" y="627.9" class="st9" width="16.3" height="17.5"/>
	<rect x="579.6" y="627.9" class="st10" width="16.3" height="17.5"/>
	<rect x="550.1" y="627.9" class="st5" width="16.3" height="17.5"/>
</g>
<g>
	<rect x="609.1" y="602.7" class="st7" width="16.3" height="17.5"/>
	<rect x="579.6" y="602.7" class="st11" width="16.3" height="17.5"/>
	<rect x="550.1" y="602.7" class="st8" width="16.3" height="17.5"/>
</g>
<rect x="579.6" y="660.9" class="st5" width="16.3" height="37.9"/>
<rect x="609.1" y="660.9" class="st8" width="16.3" height="17.5"/>
<rect x="550.1" y="660.9" class="st10" width="16.3" height="17.5"/>
<rect x="449.2" y="612.3" class="st8" width="92" height="86.5"/>
<rect x="449.2" y="569.8" class="st5" width="92" height="42.5"/>
<polygon class="st4" points="495.2,581 473.1,600.5 469.6,603.5 520.8,603.5 "/>
<polygon class="st10" points="495.2,586.4 475.8,603.5 514.6,603.5 "/>
<rect x="458.1" y="660.9" class="st5" width="16.3" height="37.9"/>
<rect x="487.6" y="660.9" class="st10" width="16.3" height="17.5"/>
<rect x="517.1" y="660.9" class="st5" width="16.3" height="17.5"/>
<rect x="643.4" y="578.9" class="st4" width="18" height="46.7"/>
<rect x="643.4" y="578.9" class="st5" width="9" height="46.7"/>
<rect x="356" y="506.3" class="st5" width="93.1" height="40.3"/>
<polygon class="st6" points="402.6,511.9 377,534.4 428.2,534.4 "/>
<rect x="356" y="533.3" class="st6" width="93.1" height="150.1"/>
<polygon class="st5" points="402.6,517.4 383.2,534.4 403.7,539.3 422,534.4 "/>
<rect x="356" y="660.9" class="st5" width="93.1" height="37.9"/>
<rect x="423.9" y="636.6" class="st7" width="16.3" height="17.5"/>
<rect x="394.4" y="636.6" class="st5" width="16.3" height="17.5"/>
<rect x="364.9" y="636.6" class="st5" width="16.3" height="17.5"/>
<rect x="394.4" y="664.2" class="st10" width="16.3" height="34.5"/>
<rect x="423.9" y="664.2" class="st10" width="16.3" height="16"/>
<rect x="364.9" y="664.2" class="st8" width="16.3" height="16"/>
<rect x="383.2" y="534.4" class="st5" width="38.8" height="15"/>
<polygon class="st8" points="410.8,529.5 403,522.3 394.4,529.5 394.4,546.6 410.8,546.6 "/>
<polygon class="st6" points="356,698.8 264,698.8 264,593.5 264,593.5 264,593.5 310,553 356,593.5 356,593.5 356,593.5 "/>
<polygon class="st8" points="356,698.8 264,698.8 264,598.8 264,598.8 264,598.8 310,558.3 356,598.8 356,598.8 356,598.8 "/>
<path class="st12" d="M318.2,572.3l-7.8-7.2l-8.5,7.2c0,14.3,0,28.6,0,43h16.3C318.2,601,318.2,586.7,318.2,572.3z"/>
<rect x="301.8" y="664.2" class="st12" width="16.3" height="34.5"/>
<rect x="326.6" y="601.8" class="st11" width="16.3" height="13.5"/>
<polygon class="st10" points="342.4,594.8 326.6,580.3 326.6,594.8 "/>
<rect x="277.1" y="601.8" class="st7" width="16.3" height="13.5"/>
<polygon class="st12" points="277.6,594.8 293.4,580.3 293.4,594.8 "/>
<rect x="326.6" y="664.2" class="st11" width="16.3" height="13.5"/>
<rect x="277.1" y="664.2" class="st12" width="16.3" height="13.5"/>
<rect x="170.9" y="538.4" class="st6" width="93.1" height="38.5"/>
<polygon class="st5" points="217.4,544.3 191.9,566.8 243,566.8 "/>
<polygon class="st12" points="217.4,549.7 198,566.8 236.8,566.8 "/>
<rect x="170.9" y="576.9" class="st5" width="93.1" height="121.9"/>
<g>
	<rect x="238.7" y="619.2" class="st12" width="16.3" height="17.5"/>
	<rect x="209.3" y="619.2" class="st6" width="16.3" height="17.5"/>
	<rect x="179.8" y="619.2" class="st11" width="16.3" height="17.5"/>
</g>
<rect x="238.7" y="660.9" class="st8" width="16.3" height="37.9"/>
<rect x="209.3" y="660.9" class="st6" width="16.3" height="17.5"/>
<rect x="179.8" y="660.9" class="st12" width="16.3" height="17.5"/>
<rect x="461.3" y="536.2" class="st5" width="10.3" height="38.5"/>
<rect x="466.5" y="536.2" class="st4" width="5.2" height="38.5"/>
<polygon class="st5" points="170.9,618.5 116.7,618.5 116.7,577.2 116.7,577.2 116.7,577.2 143.8,550.4 170.9,577.2 170.9,577.2 
	170.9,577.2 "/>
<polygon class="st6" points="170.9,698.8 116.7,698.8 116.7,580.7 116.7,580.7 116.7,580.7 143.8,553.9 170.9,580.7 170.9,580.7 
	170.9,580.7 "/>
<path class="st11" d="M151.9,574.3l-8.2-8.1l-8.2,8.1c0,14.3,0,25.5,0,39.8h16.3C151.9,599.8,151.9,588.6,151.9,574.3z"/>
<rect x="135.6" y="664.2" class="st5" width="16.3" height="34.5"/>
<path class="st12" d="M151.9,618.5h-16.3c0,13.5,0,4.9,0,18.4h16.3C151.9,623.4,151.9,632,151.9,618.5z"/>
<path class="st10" d="M151.9,641.8h-16.3c0,13.5,0,4.9,0,18.4h16.3C151.9,646.7,151.9,655.3,151.9,641.8z"/>
<rect x="634.3" y="652.4" class="st8" width="92" height="46.4"/>
<rect x="634.3" y="614.6" class="st5" width="92" height="37.8"/>
<polygon class="st4" points="680.4,621.1 654.8,643.6 705.9,643.6 "/>
<polygon class="st10" points="680.4,626.5 661,643.6 699.8,643.6 "/>
<rect x="643.3" y="660.9" class="st5" width="16.3" height="37.9"/>
<rect x="672.8" y="660.9" class="st11" width="16.3" height="17.5"/>
<rect x="700.1" y="660.9" class="st7" width="16.3" height="17.5"/>
<rect x="48.3" y="652.4" class="st8" width="68.4" height="46.4"/>
<rect x="48.3" y="614.6" class="st5" width="68.4" height="37.8"/>
<rect x="58.6" y="660.9" class="st7" width="16.3" height="37.9"/>
<rect x="88.1" y="660.9" class="st11" width="16.3" height="17.5"/>
<rect x="170.9" y="652.4" class="st6" width="93.1" height="8.5"/>
<polygon class="st6" points="82.5,621.1 60.4,640.6 56.9,643.6 108.1,643.6 "/>
<polygon class="st12" points="82.5,626.5 63.1,643.6 101.9,643.6 "/>
<rect x="541.2" y="586.1" class="st8" width="93.1" height="8.5"/>
<g>
	<rect x="609.1" y="564.2" class="st11" width="16.3" height="17.5"/>
	<rect x="579.6" y="564.2" class="st5" width="16.3" height="17.5"/>
	<rect x="550.1" y="564.2" class="st10" width="16.3" height="17.5"/>
</g>
<rect x="458.1" y="634.7" class="st5" width="16.3" height="17.5"/>
<rect x="487.6" y="634.7" class="st11" width="16.3" height="17.5"/>
<rect x="517.1" y="634.7" class="st7" width="16.3" height="17.5"/>
<rect x="423.9" y="610.4" class="st10" width="16.3" height="17.5"/>
<rect x="394.4" y="610.4" class="st7" width="16.3" height="17.5"/>
<rect x="364.9" y="610.4" class="st11" width="16.3" height="17.5"/>
<rect x="423.9" y="584.2" class="st8" width="16.3" height="17.5"/>
<rect x="394.4" y="584.2" class="st8" width="16.3" height="17.5"/>
<rect x="364.9" y="584.2" class="st10" width="16.3" height="17.5"/>
<rect x="326.6" y="643.5" class="st12" width="16.3" height="13.5"/>
<rect x="326.6" y="622.8" class="st7" width="16.3" height="13.5"/>
<rect x="301.8" y="643.5" class="st7" width="16.3" height="13.5"/>
<rect x="301.8" y="622.8" class="st10" width="16.3" height="13.5"/>
<rect x="277.1" y="643.5" class="st10" width="16.3" height="13.5"/>
<rect x="277.1" y="622.8" class="st11" width="16.3" height="13.5"/>
<rect x="170.9" y="610.7" class="st6" width="93.1" height="8.5"/>
<g>
	<rect x="238.7" y="576.8" class="st8" width="16.3" height="17.5"/>
	<rect x="209.3" y="576.8" class="st7" width="16.3" height="17.5"/>
	<rect x="179.8" y="576.8" class="st12" width="16.3" height="17.5"/>
</g>
<rect x="423.9" y="557.5" class="st5" width="16.3" height="17.5"/>
<rect x="394.4" y="557.5" class="st11" width="16.3" height="17.5"/>
<rect x="364.9" y="557.5" class="st8" width="16.3" height="17.5"/>
<g>
	<path class="st13" d="M442.4,685.4c-0.6,0.1-1.1-0.3-1.2-0.8c-0.1-0.6,0.3-1.1,0.8-1.2c0.7-0.1,1.7-0.5,2.7-1.4c1-1,2-2.5,2.5-5.2
		c0.1-0.6,0.7-0.9,1.2-0.8c0.6,0.1,0.9,0.7,0.8,1.2c-0.6,3.1-1.8,5-3.1,6.3C444.9,684.7,443.5,685.2,442.4,685.4z"/>
	<path class="st13" d="M440.1,674.4c-0.1-0.6,0.4-1.1,0.9-1.2c0.6-0.1,1.1,0.4,1.2,0.9c0.3,2.4,0.6,6.6,0.8,11.3
		c0.1,4.7,0,9.8-0.8,14.1c-0.1,0.6-0.6,1-1.2,0.8c-0.6-0.1-1-0.6-0.8-1.2c0.8-4.1,0.9-9.1,0.8-13.7
		C440.7,681,440.3,676.9,440.1,674.4z"/>
	<path class="st14" d="M445.6,667.2c3.8,0,6.9,2.4,6.9,5.3c0,2.1-1.7,4-4.1,4.8c-0.7,2.3-3.5,4.1-6.8,4.1c-2.8,0-5.2-1.3-6.3-3.1
		c-0.3,0-0.6,0-0.9,0c-3.8,0-6.9-2.4-6.9-5.3c0-2.4,2.2-4.5,5.1-5.1c0.8-2.2,3.5-3.8,6.7-3.8C442,664.1,444.4,665.4,445.6,667.2
		L445.6,667.2z"/>
	<path class="st15" d="M445.6,667.2c3.8,0,6.9,2.4,6.9,5.3c0,0.5-0.1,1-0.3,1.5c-0.4,0.2-0.8,0.4-1.2,0.5c-0.3,1-0.9,1.8-1.8,2.5
		c-0.3,0.1-0.5,0.2-0.8,0.3c0,0.1-0.1,0.2-0.1,0.3c-1.1,0.6-2.5,1-4,1c-2.8,0-5.2-1.3-6.3-3.1c-0.3,0-0.6,0-0.9,0
		c-3.8,0-6.9-2.4-6.9-5.3c0-0.5,0.1-1,0.3-1.5c0.7-0.4,1.4-0.6,2.2-0.8c0.8-2.2,3.5-3.8,6.7-3.8C442,664.1,444.4,665.4,445.6,667.2
		L445.6,667.2z"/>
</g>
<g>
	<path class="st13" d="M333.4,688.1c0.5,0.3,0.8,0.9,0.5,1.5c-0.3,0.5-0.9,0.8-1.5,0.5c-1-0.5-2.7-1.6-4.5-3.9l0,0
		c-1.2-1.5-2.4-3.5-3.5-6.2c-0.2-0.6,0-1.2,0.6-1.4c0.6-0.2,1.2,0,1.4,0.6c1,2.5,2.1,4.3,3.2,5.7l0,0l0,0
		C331.2,686.8,332.5,687.7,333.4,688.1z"/>
	<path class="st13" d="M332.5,699.9c-0.3,0.5-1,0.7-1.5,0.3c-0.5-0.3-0.7-1-0.3-1.5c1-1.5,1.4-4.4,1.4-7.7c0-3.7-0.5-7.9-1.4-11.6
		c-0.2-0.6,0.2-1.2,0.8-1.3c0.6-0.2,1.2,0.2,1.3,0.8c1,3.9,1.5,8.3,1.5,12.1C334.3,694.8,333.7,698.1,332.5,699.9z"/>
	<path class="st14" d="M329.3,682.7L329.3,682.7L329.3,682.7c-0.1,0-0.1,0-0.2,0l0,0l0,0c0,0-0.1,0-0.1,0l0,0l0,0c0,0-0.1,0-0.1,0
		l0,0l0,0h0c0,0-0.1,0-0.1,0l0,0l0,0c-0.1,0-0.1,0-0.2,0l0,0h0h0c-0.1,0-0.1,0-0.2,0l0,0h0c-0.1,0-0.1,0-0.2,0h0c-0.1,0-0.1,0-0.2,0
		h0h0h0c-0.1,0-0.1,0-0.2,0c-3.6,0-6.5-2.2-6.5-5c0,0,0-0.1,0-0.1l0,0c0,0,0-0.1,0-0.1l0,0c0,0,0-0.1,0-0.1l0,0c0,0,0-0.1,0-0.1l0,0
		c0,0,0-0.1,0-0.1l0,0v0l0,0c0,0,0-0.1,0-0.1l0,0c0,0,0-0.1,0-0.1l0,0c0,0,0-0.1,0-0.1l0,0c0,0,0-0.1,0-0.1l0,0c0,0,0-0.1,0-0.1l0,0
		l0,0l0,0c0,0,0-0.1,0-0.1l0,0c0,0,0-0.1,0-0.1l0,0c0,0,0-0.1,0-0.1l0,0c0,0,0-0.1,0-0.1l0,0c0,0,0-0.1,0-0.1l0,0l0,0l0,0
		c0,0,0-0.1,0-0.1l0,0c0,0,0-0.1,0.1-0.1l0,0c0,0,0-0.1,0.1-0.1l0,0c0,0,0-0.1,0.1-0.1l0,0c0,0,0-0.1,0.1-0.1l0,0l0,0
		c0,0,0-0.1,0.1-0.1l0,0c0,0,0-0.1,0.1-0.1l0,0c0,0,0-0.1,0.1-0.1l0,0c0,0,0-0.1,0.1-0.1l0,0c0,0,0,0,0.1-0.1l0,0l0,0l0,0
		c0,0,0,0,0.1-0.1l0,0c0,0,0.1-0.1,0.1-0.1l0,0c0,0,0.1,0,0.1-0.1l0,0c0,0,0.1-0.1,0.1-0.1l0,0c0,0,0.1,0,0.1-0.1l0,0
		c0,0,0.1,0,0.1-0.1l0,0c0,0,0.1,0,0.1-0.1l0,0c0,0,0.1,0,0.1-0.1l0,0c0,0,0.1,0,0.1-0.1l0,0c0,0,0.1,0,0.1-0.1l0,0l0,0
		c0,0,0.1,0,0.1-0.1l0,0c0,0,0.1,0,0.1-0.1l0,0c0,0,0.1,0,0.1,0l0,0c0,0,0.1,0,0.1-0.1l0,0c0,0,0.1,0,0.1-0.1l0,0l0,0c0,0,0,0,0-0.1
		l0,0c0,0,0-0.1,0-0.1l0,0c0,0,0-0.1,0-0.1l0,0c0,0,0-0.1,0-0.1l0,0c0,0,0-0.1,0-0.1l0,0c0,0,0-0.1,0-0.1l0,0c0,0,0-0.1,0-0.1l0,0
		l0,0c0,0,0-0.1,0-0.1l0,0c0,0,0-0.1,0-0.1v0l0,0c0,0,0-0.1,0-0.1v0l0,0c0,0,0-0.1,0-0.1v0c0,0,0-0.1,0-0.1l0,0v0v0c0,0,0-0.1,0-0.1
		c0-2.7,2.9-5,6.5-5c0,0,0.1,0,0.1,0l0,0c0,0,0.1,0,0.1,0l0,0c0.1,0,0.1,0,0.2,0l0,0c0,0,0.1,0,0.1,0l0,0c0,0,0.1,0,0.1,0l0,0
		c0,0,0.1,0,0.1,0l0,0l0.1,0l0,0c0,0,0.1,0,0.1,0l0,0l0,0c0,0,0.1,0,0.1,0l0,0l0.1,0l0,0c0,0,0.1,0,0.1,0l0,0l0.1,0l0,0
		c0,0,0.1,0,0.1,0l0,0h0l0,0c0,0,0.1,0,0.1,0l0,0l0.1,0l0,0c0,0,0.1,0,0.1,0l0,0l0.1,0l0.1,0l0.1,0l0,0c0,0,0.1,0,0.1,0l0.1,0l0.1,0
		l0,0c0,0,0.1,0,0.1,0l0.1,0l0.1,0l0.1,0l0.1,0l0.1,0c0,0,0.1,0,0.1,0.1l0,0l0.1,0l0.1,0l0.1,0c0,0,0.1,0,0.1,0l0.1,0l0.1,0l0,0
		l0.1,0l0,0c0,0,0.1,0,0.1,0.1l0.1,0l0,0l0.1,0l0,0c0,0,0.1,0.1,0.1,0.1l0,0l0.1,0l0,0l0.1,0l0,0c0,0,0.1,0.1,0.1,0.1l0,0l0.1,0l0,0
		c0,0,0,0,0.1,0.1c0,0,0,0,0.1,0.1l0,0l0,0l0,0l0.1,0.1l0,0c0.1,0.1,0.1,0.1,0.2,0.2l0,0c0.1,0.1,0.1,0.1,0.2,0.2l0,0l0,0.1l0,0
		c0.1,0.1,0.1,0.1,0.1,0.2l0,0c0,0,0,0,0,0.1l0,0l0.1,0c3.6,0,6.5,2.2,6.5,5c0,0,0,0.1,0,0.1l0,0c0,0,0,0.1,0,0.1l0,0
		c0,0,0,0.1,0,0.1l0,0c0,0,0,0.1,0,0.1l0,0c0,0,0,0.1,0,0.1l0,0c0,0,0,0.1,0,0.1l0,0c0,0,0,0.1,0,0.1l0,0c0,0,0,0.1,0,0.1l0,0
		c0,0,0,0.1,0,0.1l0,0c0,0,0,0.1,0,0.1l0,0c0,0,0,0.1,0,0.1l0,0l0,0c0,0,0,0.1,0,0.1l0,0c0,0,0,0,0,0.1l0,0c0,0,0,0.1,0,0.1l0,0l0,0
		c0,0,0,0.1,0,0.1l0,0l0,0.1l0,0c0,0,0,0.1-0.1,0.1l0,0c0,0,0,0,0,0.1l0,0l0,0.1l0,0c0,0,0,0.1-0.1,0.1l0,0l0,0.1l0,0
		c0,0,0,0-0.1,0.1l0,0c0,0,0,0.1-0.1,0.1l0,0l-0.1,0.1l0,0c0,0,0,0-0.1,0.1l0,0l-0.1,0.1l0,0l0,0l0,0l-0.1,0.1l-0.1,0.1l-0.1,0.1
		l0,0l-0.1,0l0,0c0,0-0.1,0-0.1,0.1l0,0l-0.1,0l0,0l-0.1,0l0,0c0,0-0.1,0-0.1,0.1l-0.1,0l-0.1,0l-0.1,0l-0.1,0l-0.1,0
		c0,0-0.1,0-0.1,0.1l0,0l-0.1,0l-0.1,0l-0.1,0l-0.1,0l-0.1,0l-0.1,0l-0.1,0l0,0l-0.1,0l-0.1,0c0,0-0.1,0-0.1,0.1l0,0l-0.1,0l-0.1,0
		l-0.1,0c0,0-0.1,0-0.1,0l-0.1,0l-0.1,0l-0.1,0l-0.1,0l-0.1,0c-0.7,2.2-3.3,3.8-6.3,3.8C331.4,683.4,330.2,683.1,329.3,682.7z"/>
	<path class="st15" d="M327.9,667.6c0.8-0.2,1.6-0.4,2.4-0.4c0,0,0.1,0,0.1,0l0,0c0,0,0.1,0,0.1,0l0,0c0.1,0,0.1,0,0.2,0l0,0
		c0,0,0.1,0,0.1,0l0,0c0,0,0.1,0,0.1,0l0,0c0,0,0.1,0,0.1,0l0,0l0.1,0l0,0c0,0,0.1,0,0.1,0l0,0l0,0c0,0,0.1,0,0.1,0l0,0l0.1,0l0,0
		c0,0,0.1,0,0.1,0l0,0l0.1,0l0,0c0,0,0.1,0,0.1,0l0,0h0l0,0c0,0,0.1,0,0.1,0l0,0l0.1,0l0,0c0,0,0.1,0,0.1,0l0,0l0.1,0l0.1,0l0.1,0
		l0,0c0,0,0.1,0,0.1,0l0.1,0l0.1,0l0,0c0,0,0.1,0,0.1,0l0.1,0l0.1,0l0.1,0l0.1,0l0.1,0c0,0,0.1,0,0.1,0.1l0,0l0.1,0l0.1,0l0.1,0
		c0,0,0.1,0,0.1,0l0.1,0l0.1,0l0,0l0.1,0l0,0c0,0,0.1,0,0.1,0.1l0.1,0l0,0l0.1,0l0,0c0,0,0.1,0.1,0.1,0.1l0,0l0.1,0l0,0l0.1,0l0,0
		c0,0,0.1,0.1,0.1,0.1l0,0l0.1,0l0,0c0,0,0,0,0.1,0.1c0,0,0,0,0.1,0.1l0,0l0,0l0,0l0.1,0.1l0,0c0.1,0.1,0.1,0.1,0.2,0.2l0,0
		c0.1,0.1,0.1,0.1,0.2,0.2l0,0l0,0.1l0,0c0.1,0.1,0.1,0.1,0.1,0.2l0,0c0,0,0,0,0,0.1l0,0l0.1,0c3.6,0,6.5,2.2,6.5,5c0,0,0,0.1,0,0.1
		l0,0c0,0,0,0.1,0,0.1l0,0c0,0,0,0.1,0,0.1l0,0c0,0,0,0.1,0,0.1l0,0c0,0,0,0.1,0,0.1l0,0c0,0,0,0.1,0,0.1l0,0c0,0,0,0.1,0,0.1l0,0
		c0,0,0,0.1,0,0.1l0,0c0,0,0,0.1,0,0.1l0,0c0,0,0,0.1,0,0.1l0,0c0,0,0,0.1,0,0.1l0,0l0,0c0,0,0,0.1,0,0.1l0,0c0,0,0,0,0,0.1l0,0
		c0,0,0,0.1,0,0.1l0,0l0,0c0,0,0,0.1,0,0.1l0,0l0,0.1l0,0c0,0,0,0.1-0.1,0.1l0,0c0,0,0,0,0,0.1l0,0l0,0.1l0,0c0,0,0,0.1-0.1,0.1l0,0
		l0,0.1l0,0c0,0,0,0-0.1,0.1l0,0c0,0,0,0.1-0.1,0.1l0,0l-0.1,0.1l0,0c0,0,0,0-0.1,0.1l0,0l-0.1,0.1l0,0l0,0l0,0l-0.1,0.1l-0.1,0.1
		l-0.1,0.1l0,0l-0.1,0l0,0c0,0-0.1,0-0.1,0.1l0,0l-0.1,0l0,0l-0.1,0l0,0c0,0-0.1,0-0.1,0.1l-0.1,0l-0.1,0l-0.1,0l-0.1,0l-0.1,0
		c0,0-0.1,0-0.1,0.1l0,0l-0.1,0l-0.1,0l-0.1,0l-0.1,0l-0.1,0l-0.1,0l-0.1,0l0,0l-0.1,0l-0.1,0c0,0-0.1,0-0.1,0.1l0,0l-0.1,0l-0.1,0
		l-0.1,0c0,0-0.1,0-0.1,0l-0.1,0l-0.1,0l-0.1,0l-0.1,0l-0.1,0c-0.2,0.6-0.5,1.1-0.8,1.5c-0.8,0.2-1.6,0.4-2.4,0.4
		c-1.2,0-2.4-0.3-3.3-0.7l0,0l0,0c0,0-0.1,0-0.1,0l0,0l0,0c0,0-0.1,0-0.1,0l0,0l0,0c0,0-0.1,0-0.1,0l0,0l0,0h0c0,0-0.1,0-0.1,0l0,0
		l0,0c-0.1,0-0.1,0-0.2,0l0,0l0,0h0c-0.1,0-0.1,0-0.2,0h0h0c-0.1,0-0.1,0-0.2,0h0c-0.1,0-0.1,0-0.2,0h0h0h0c-0.1,0-0.1,0-0.2,0
		c-3.6,0-6.5-2.2-6.5-5c0,0,0-0.1,0-0.1l0,0c0,0,0-0.1,0-0.1l0,0c0,0,0-0.1,0-0.1l0,0c0,0,0-0.1,0-0.1l0,0c0,0,0-0.1,0-0.1l0,0l0,0
		l0,0c0,0,0-0.1,0-0.1l0,0c0,0,0-0.1,0-0.1l0,0c0,0,0-0.1,0-0.1l0,0c0,0,0-0.1,0-0.1l0,0c0,0,0-0.1,0-0.1l0,0v0l0,0c0,0,0-0.1,0-0.1
		l0,0c0,0,0-0.1,0-0.1l0,0c0,0,0-0.1,0-0.1l0,0c0,0,0-0.1,0-0.1l0,0c0,0,0-0.1,0-0.1l0,0l0,0l0,0c0,0,0-0.1,0-0.1l0,0
		c0,0,0-0.1,0.1-0.1l0,0c0,0,0-0.1,0.1-0.1l0,0c0,0,0-0.1,0.1-0.1l0,0c0,0,0-0.1,0.1-0.1l0,0l0,0c0,0,0-0.1,0.1-0.1l0,0
		c0,0,0-0.1,0.1-0.1l0,0c0,0,0-0.1,0.1-0.1l0,0c0,0,0-0.1,0.1-0.1l0,0c0,0,0,0,0.1-0.1l0,0l0,0l0,0c0,0,0,0,0.1-0.1l0,0
		c0,0,0.1-0.1,0.1-0.1l0,0c0,0,0.1,0,0.1-0.1l0,0c0,0,0.1-0.1,0.1-0.1l0,0c0,0,0.1,0,0.1-0.1l0,0c0,0,0.1,0,0.1-0.1l0,0
		c0,0,0.1,0,0.1-0.1l0,0c0,0,0.1,0,0.1-0.1l0,0c0,0,0.1,0,0.1-0.1l0,0c0,0,0.1,0,0.1-0.1l0,0l0,0c0,0,0.1,0,0.1-0.1l0,0
		c0,0,0.1,0,0.1-0.1l0,0c0,0,0.1,0,0.1,0l0,0c0,0,0.1,0,0.1-0.1l0,0c0,0,0.1,0,0.1-0.1l0,0l0,0c0,0,0,0,0-0.1l0,0c0,0,0-0.1,0-0.1
		l0,0c0,0,0-0.1,0-0.1l0,0c0,0,0-0.1,0-0.1l0,0c0,0,0-0.1,0-0.1l0,0c0,0,0-0.1,0-0.1l0,0c0,0,0-0.1,0-0.1l0,0l0,0c0,0,0-0.1,0-0.1
		l0,0c0,0,0-0.1,0-0.1v0l0,0c0,0,0-0.1,0-0.1v0l0,0c0,0,0-0.1,0-0.1v0c0,0,0-0.1,0-0.1v0v0v0c0,0,0-0.1,0-0.1
		C326.9,669.3,327.3,668.4,327.9,667.6z"/>
</g>
<g>
	<path class="st13" d="M221.9,691.8c-0.5,0.1-1.1-0.3-1.2-0.8c-0.1-0.5,0.3-1.1,0.8-1.2c1.4-0.2,3-1.1,4.1-2.7
		c0.9-1.3,1.6-3.1,1.6-5.4c0-0.6,0.4-1,1-1s1,0.4,1,1c0,2.8-0.8,4.9-1.9,6.6C225.8,690.4,223.8,691.5,221.9,691.8z"/>
	<path class="st13" d="M220.6,687.3c0.5,0.1,0.9,0.6,0.8,1.2c-0.1,0.5-0.6,0.9-1.2,0.8c-1.6-0.3-4.6-1.2-6.8-3.2
		c-1.5-1.3-2.8-3.2-3.1-5.7c-0.1-0.5,0.3-1.1,0.9-1.1c0.5-0.1,1.1,0.3,1.1,0.9c0.3,1.9,1.2,3.4,2.4,4.4
		C216.6,686.2,219.1,687,220.6,687.3z"/>
	<path class="st13" d="M223.3,699.6c-0.1,0.5-0.6,0.9-1.1,0.9c-0.5-0.1-0.9-0.6-0.9-1.1c0.3-2.1,0.1-4-0.5-6.4
		c-0.6-2.5-1.7-5.6-3.3-10.1c-0.2-0.5,0.1-1.1,0.6-1.3c0.5-0.2,1.1,0.1,1.3,0.6c1.6,4.5,2.7,7.7,3.3,10.3
		C223.5,695.1,223.6,697.2,223.3,699.6z"/>
	<path class="st14" d="M210.6,682.5c-0.7,0.2-1.4,0.4-2.2,0.4c-2.6,0-4.7-1.4-4.7-3.1c0-1.4,1.3-2.5,3.1-2.9
		c-1.1-0.6-1.9-1.5-1.9-2.5c0-1.7,2.1-3.1,4.7-3.1c0.1,0,0.2,0,0.3,0c0-0.2-0.1-0.3-0.1-0.5c0-1.7,2.1-3.1,4.7-3.1
		c0.5,0,1,0.1,1.5,0.2c0.3-1.6,2.2-2.8,4.6-2.8c2.6,0,4.7,1.4,4.7,3.1c0,0,0,0.1,0,0.1c0.2,0,0.5,0,0.7,0c2.6,0,4.7,1.4,4.7,3.1
		c0,0.6-0.3,1.2-0.8,1.7c0.6,0.5,1,1.2,1,1.9c0.3,0,0.6-0.1,1-0.1c2.6,0,4.7,1.4,4.7,3.1c0,1.7-2.1,3.1-4.7,3.1c-0.1,0-0.2,0-0.4,0
		c-0.5,1.4-2.3,2.4-4.5,2.4c-0.3,0-0.5,0-0.8,0c-0.2,1.6-2.2,2.9-4.7,2.9c-2,0-3.7-0.8-4.4-2c-0.7,0.3-1.4,0.4-2.3,0.4
		C212.9,684.7,211.2,683.8,210.6,682.5z"/>
	<path class="st15" d="M217.7,679.9c-0.7,0.2-1.4,0.4-2.2,0.4c-2.6,0-4.7-1.4-4.7-3.1c0-1.4,1.3-2.5,3.1-2.9
		c-1.1-0.6-1.9-1.5-1.9-2.5c0-1.7,2.1-3.1,4.7-3.1c0.1,0,0.2,0,0.3,0c0-0.2-0.1-0.3-0.1-0.5c0-1.6,1.9-3,4.3-3.1
		c2.3,0.2,4,1.5,4,3.1c0,0,0,0.1,0,0.1c0.2,0,0.5,0,0.7,0c2.6,0,4.7,1.4,4.7,3.1c0,0.6-0.3,1.2-0.8,1.7c0.6,0.5,1,1.2,1,1.9
		c0.3,0,0.6-0.1,1-0.1c2.6,0,4.7,1.4,4.7,3.1c0,1.3-1.3,2.5-3,2.9c-0.1,0-0.1,0-0.2,0c0,0,0,0,0,0.1c-0.5,0.1-0.9,0.2-1.4,0.2
		c-0.1,0-0.2,0-0.4,0c-0.5,1.4-2.3,2.4-4.5,2.4h0c-1.2-0.3-2.2-1-2.6-1.8c-0.7,0.3-1.4,0.4-2.3,0.4
		C220,682.1,218.3,681.2,217.7,679.9z"/>
</g>
<g>
	<path class="st13" d="M108.4,693.9c0.4-0.1,0.7-0.4,0.6-0.8c-0.1-0.4-0.4-0.7-0.8-0.6c0,0-0.1,0-0.1,0c-0.4,0-0.8-0.2-1.2-0.5
		c-0.4-0.3-0.7-0.8-0.8-1.5c0-0.1,0-0.2,0-0.3c0-0.4-0.3-0.7-0.8-0.7c-0.4,0-0.7,0.3-0.7,0.8c0,0.2,0,0.3,0,0.5
		c0.1,1.1,0.7,1.9,1.3,2.5c0.7,0.6,1.5,0.8,2.2,0.8C108.2,693.9,108.3,693.9,108.4,693.9z"/>
	<g>
		<path class="st13" d="M109.6,699.6c-0.1,0.5-0.6,0.9-1.2,0.8c-0.5-0.1-0.9-0.6-0.8-1.2c0.3-1.6,0.6-5.4,0.7-9.2
			c0-2.9-0.1-5.8-0.5-7.9c-0.1-0.5,0.3-1.1,0.8-1.2c0.5-0.1,1.1,0.3,1.2,0.8c0.4,2.2,0.6,5.3,0.5,8.3
			C110.3,694,110,697.9,109.6,699.6z"/>
		<path class="st14" d="M113.7,673.7c1.5,0.9,2.4,2.5,2.4,4.2c0,0.3,0,0.7-0.1,1c1.8,0.9,3.1,2.6,3.1,4.6c0,2.8-2.6,5.2-5.8,5.2
			c-1,1.8-3,3-5.4,3c-1.5,0-2.9-0.5-3.9-1.3c-0.5,0.1-1.1,0.2-1.7,0.2c-3.3,0-5.9-2.3-5.9-5.2c0-1.9,1.2-3.6,2.9-4.5
			c-0.2-0.5-0.2-1-0.2-1.5c0-2.1,1.4-3.9,3.4-4.7c-0.3-0.6-0.4-1.3-0.4-2c0-2.9,2.7-5.2,5.9-5.2c3.3,0,5.9,2.3,5.9,5.2
			C113.8,673,113.7,673.4,113.7,673.7z"/>
		<path class="st15" d="M113.7,673.7c1.5,0.9,2.4,2.5,2.4,4.2c0,0.3,0,0.7-0.1,1c1.8,0.9,3.1,2.6,3.1,4.6c0,0.5-0.1,1-0.3,1.5
			c-0.5,0.1-1.1,0.2-1.6,0.2c-1,1.8-3,3-5.4,3c-1.5,0-2.9-0.5-3.9-1.3c-0.5,0.1-1.1,0.2-1.7,0.2c-3.3,0-5.9-2.3-5.9-5.2
			c0-1.9,1.2-3.6,2.9-4.5c-0.2-0.5-0.2-1-0.2-1.5c0-2.1,1.4-3.9,3.4-4.7c-0.3-0.6-0.4-1.3-0.4-2c0-0.5,0.1-1,0.3-1.5
			c0.5-0.1,1.1-0.2,1.7-0.2c3.3,0,5.9,2.3,5.9,5.2C113.8,673,113.7,673.4,113.7,673.7z"/>
	</g>
</g>
<g>
	<path class="st13" d="M662.6,685.9c0.6,0.3,0.9,1.1,0.6,1.7c-0.3,0.6-1.1,0.9-1.7,0.6c-1.2-0.6-3.2-1.9-5.3-4.6l0,0
		c-1.4-1.8-2.8-4.2-4.1-7.4c-0.3-0.7,0.1-1.4,0.7-1.7c0.7-0.3,1.4,0.1,1.7,0.7c1.2,2.9,2.5,5.1,3.8,6.7l0,0l0,0
		C659.9,684.3,661.6,685.4,662.6,685.9z"/>
	<path class="st13" d="M661.6,699.8c-0.4,0.6-1.2,0.8-1.8,0.4c-0.6-0.4-0.8-1.2-0.4-1.8c1.1-1.8,1.7-5.2,1.7-9.2
		c0-4.3-0.6-9.3-1.7-13.7c-0.2-0.7,0.2-1.4,0.9-1.6c0.7-0.2,1.4,0.2,1.6,0.9c1.2,4.6,1.8,9.8,1.8,14.3
		C663.6,693.7,663,697.6,661.6,699.8z"/>
	<path class="st14" d="M657.7,679.5L657.7,679.5L657.7,679.5c-0.1,0-0.1,0-0.2,0l0,0l0,0c-0.1,0-0.1,0-0.2,0l0,0l0,0
		c-0.1,0-0.1,0-0.2,0l0,0l0,0h0c-0.1,0-0.1,0-0.2,0l0,0l0,0c-0.1,0-0.1,0-0.2,0l0,0l0,0h0c-0.1,0-0.1,0-0.2,0h0l0,0
		c-0.1,0-0.1,0-0.2,0l0,0c-0.1,0-0.1,0-0.2,0h0h0h0c-0.1,0-0.1,0-0.2,0c-4.3,0-7.7-2.6-7.7-5.9c0,0,0-0.1,0-0.1l0,0c0,0,0-0.1,0-0.1
		l0,0c0,0,0-0.1,0-0.1l0,0c0,0,0-0.1,0-0.1l0,0c0,0,0-0.1,0-0.1l0,0v0l0,0c0,0,0-0.1,0-0.1l0,0c0,0,0-0.1,0-0.1l0,0c0,0,0-0.1,0-0.1
		l0,0c0,0,0-0.1,0-0.1l0,0c0,0,0-0.1,0-0.1l0,0v0l0,0c0,0,0-0.1,0-0.1l0,0c0,0,0-0.1,0-0.1l0,0c0,0,0-0.1,0-0.1l0,0
		c0,0,0-0.1,0.1-0.1l0,0c0,0,0-0.1,0.1-0.1l0,0l0,0l0,0c0,0,0-0.1,0.1-0.1l0,0c0,0,0-0.1,0.1-0.1l0,0c0,0,0-0.1,0.1-0.1l0,0
		c0,0,0-0.1,0.1-0.1l0,0c0,0,0-0.1,0.1-0.1l0,0l0,0c0,0,0.1-0.1,0.1-0.1l0,0c0,0,0.1-0.1,0.1-0.1l0,0c0,0,0.1-0.1,0.1-0.1l0,0
		c0,0,0.1-0.1,0.1-0.1l0,0c0,0,0.1-0.1,0.1-0.1l0,0l0,0l0,0c0,0,0.1-0.1,0.1-0.1l0,0c0,0,0.1-0.1,0.1-0.1l0,0c0,0,0.1-0.1,0.1-0.1
		l0,0c0,0,0.1-0.1,0.1-0.1l0,0c0,0,0.1-0.1,0.1-0.1l0,0c0,0,0.1-0.1,0.1-0.1l0,0c0,0,0.1-0.1,0.1-0.1l0,0c0,0,0.1,0,0.1-0.1l0,0
		c0,0,0.1-0.1,0.1-0.1l0,0c0,0,0.1,0,0.1-0.1l0,0l0,0c0,0,0.1,0,0.1-0.1l0,0c0,0,0.1,0,0.1-0.1l0,0c0,0,0.1,0,0.1-0.1l0,0
		c0,0,0.1,0,0.1-0.1l0,0c0,0,0.1,0,0.1-0.1l0,0l0,0c0,0,0-0.1,0-0.1l0,0c0,0,0-0.1,0-0.1l0,0c0,0,0-0.1,0-0.1l0,0c0,0,0-0.1,0-0.1
		l0,0c0,0,0-0.1,0-0.1l0,0c0,0,0-0.1,0-0.1l0,0c0,0,0-0.1,0-0.1l0,0l0,0c0,0,0-0.1,0-0.1l0,0c0,0,0-0.1,0-0.1v0l0,0c0,0,0-0.1,0-0.1
		v0l0,0c0,0,0-0.1,0-0.1v0c0,0,0-0.1,0-0.1v0v0v0c0,0,0-0.1,0-0.1c0-3.2,3.4-5.9,7.7-5.9c0.1,0,0.1,0,0.2,0l0.1,0c0,0,0.1,0,0.1,0
		l0,0c0.1,0,0.1,0,0.2,0l0,0c0.1,0,0.1,0,0.2,0l0,0c0,0,0.1,0,0.1,0l0,0c0.1,0,0.1,0,0.2,0l0.1,0l0.1,0l0.1,0c0.1,0,0.1,0,0.2,0l0,0
		l0,0c0,0,0.1,0,0.1,0l0,0l0.1,0l0,0c0.1,0,0.1,0,0.2,0l0.1,0l0.1,0l0.1,0c0,0,0.1,0,0.1,0l0,0l0,0l0,0c0.1,0,0.1,0,0.2,0l0,0l0.1,0
		l0,0c0,0,0.1,0,0.1,0l0.1,0l0.1,0l0.1,0l0.1,0l0.1,0c0,0,0.1,0,0.1,0l0.1,0l0.1,0l0.1,0c0,0,0.1,0,0.1,0l0.1,0l0.1,0l0.1,0l0.1,0
		l0.1,0c0,0,0.1,0,0.1,0.1l0.1,0l0.1,0l0.1,0l0.1,0c0,0,0.1,0,0.1,0.1l0.1,0l0.1,0l0,0l0.1,0l0,0c0,0,0.1,0,0.1,0.1l0.1,0l0,0
		l0.1,0.1l0,0c0.1,0,0.1,0.1,0.2,0.1l0,0l0.1,0.1l0,0l0.1,0.1l0,0c0,0,0.1,0.1,0.1,0.1l0,0l0.1,0.1l0,0c0,0,0,0,0.1,0.1
		c0,0,0.1,0.1,0.1,0.1l0,0l0.1,0.1l0,0l0.1,0.1l0,0c0.1,0.1,0.1,0.2,0.2,0.2l0,0c0.1,0.1,0.1,0.2,0.2,0.2l0,0l0.1,0.1l0,0
		c0.1,0.1,0.1,0.2,0.2,0.2l0,0c0,0,0,0.1,0,0.1l0,0l0.1,0c4.2,0,7.7,2.6,7.7,5.9c0,0,0,0.1,0,0.1l0,0c0,0,0,0.1,0,0.1l0,0
		c0,0,0,0.1,0,0.1l0,0c0,0,0,0.1,0,0.1l0,0c0,0,0,0.1,0,0.1l0,0c0,0,0,0.1,0,0.1l0,0c0,0,0,0.1,0,0.1l0,0c0,0,0,0.1,0,0.1l0,0
		c0,0,0,0.1,0,0.1l0,0c0,0,0,0.1,0,0.1l0,0c0,0,0,0.1,0,0.1l0,0l0,0c0,0,0,0.1,0,0.1l0,0c0,0,0,0.1,0,0.1l0,0c0,0,0,0.1-0.1,0.1l0,0
		l0,0c0,0,0,0.1-0.1,0.1l0,0l0,0.1l0,0c0,0,0,0.1-0.1,0.1l0,0c0,0,0,0.1-0.1,0.1l0,0l-0.1,0.1l0,0c0,0,0,0.1-0.1,0.1l0,0l-0.1,0.1
		l0,0c0,0,0,0.1-0.1,0.1l0,0c0,0-0.1,0.1-0.1,0.1l0,0l-0.1,0.1l0,0c0,0,0,0-0.1,0.1l-0.1,0.1l-0.1,0.1l0,0l-0.1,0.1l0,0l-0.1,0.1
		l-0.1,0.1l-0.1,0.1l0,0l-0.1,0.1l0,0c0,0-0.1,0.1-0.1,0.1l0,0l-0.1,0.1l-0.1,0l-0.1,0.1l0,0c0,0-0.1,0.1-0.1,0.1l-0.1,0l-0.1,0
		l-0.1,0l-0.1,0l-0.1,0c0,0-0.1,0-0.1,0.1l0,0l-0.1,0l-0.1,0l-0.1,0l-0.1,0l-0.1,0l-0.1,0l-0.1,0l-0.1,0l-0.1,0l-0.1,0
		c0,0-0.1,0-0.1,0.1l0,0l-0.1,0l-0.1,0l-0.1,0c0,0-0.1,0-0.1,0l-0.1,0l-0.1,0l-0.1,0l-0.1,0l-0.1,0c-0.8,2.6-3.8,4.5-7.5,4.5
		C660.2,680.3,658.9,680,657.7,679.5z"/>
	<path class="st15" d="M656.1,661.6c0.9-0.3,1.9-0.4,2.9-0.4c0.1,0,0.1,0,0.2,0l0.1,0c0,0,0.1,0,0.1,0l0,0c0.1,0,0.1,0,0.2,0l0,0
		c0.1,0,0.1,0,0.2,0l0,0c0,0,0.1,0,0.1,0l0,0c0.1,0,0.1,0,0.2,0l0.1,0l0.1,0l0.1,0c0.1,0,0.1,0,0.2,0l0,0l0,0c0,0,0.1,0,0.1,0l0,0
		l0.1,0l0,0c0.1,0,0.1,0,0.2,0l0.1,0l0.1,0l0.1,0c0,0,0.1,0,0.1,0l0,0l0,0l0,0c0.1,0,0.1,0,0.2,0l0,0l0.1,0l0,0c0,0,0.1,0,0.1,0
		l0.1,0l0.1,0l0.1,0l0.1,0l0.1,0c0,0,0.1,0,0.1,0l0.1,0l0.1,0l0.1,0c0,0,0.1,0,0.1,0l0.1,0l0.1,0l0.1,0l0.1,0l0.1,0
		c0,0,0.1,0,0.1,0.1l0.1,0l0.1,0l0.1,0l0.1,0c0,0,0.1,0,0.1,0.1l0.1,0l0.1,0l0,0l0.1,0l0,0c0,0,0.1,0,0.1,0.1l0.1,0l0,0l0.1,0.1l0,0
		c0.1,0,0.1,0.1,0.2,0.1l0,0l0.1,0.1l0,0l0.1,0.1l0,0c0,0,0.1,0.1,0.1,0.1l0,0l0.1,0.1l0,0c0,0,0,0,0.1,0.1c0,0,0.1,0.1,0.1,0.1l0,0
		l0.1,0.1l0,0l0.1,0.1l0,0c0.1,0.1,0.1,0.2,0.2,0.2l0,0c0.1,0.1,0.1,0.2,0.2,0.2l0,0l0.1,0.1l0,0c0.1,0.1,0.1,0.2,0.2,0.2l0,0
		c0,0,0,0.1,0,0.1l0,0l0.1,0c4.2,0,7.7,2.6,7.7,5.9c0,0,0,0.1,0,0.1l0,0c0,0,0,0.1,0,0.1l0,0c0,0,0,0.1,0,0.1l0,0c0,0,0,0.1,0,0.1
		l0,0c0,0,0,0.1,0,0.1l0,0c0,0,0,0.1,0,0.1l0,0c0,0,0,0.1,0,0.1l0,0c0,0,0,0.1,0,0.1l0,0c0,0,0,0.1,0,0.1l0,0c0,0,0,0.1,0,0.1l0,0
		c0,0,0,0.1,0,0.1l0,0l0,0c0,0,0,0.1,0,0.1l0,0c0,0,0,0.1,0,0.1l0,0c0,0,0,0.1-0.1,0.1l0,0l0,0c0,0,0,0.1-0.1,0.1l0,0l0,0.1l0,0
		c0,0,0,0.1-0.1,0.1l0,0c0,0,0,0.1-0.1,0.1l0,0l-0.1,0.1l0,0c0,0,0,0.1-0.1,0.1l0,0l-0.1,0.1l0,0c0,0,0,0.1-0.1,0.1l0,0
		c0,0-0.1,0.1-0.1,0.1l0,0l-0.1,0.1l0,0c0,0,0,0-0.1,0.1l-0.1,0.1l-0.1,0.1l0,0l-0.1,0.1l0,0l-0.1,0.1l-0.1,0.1l-0.1,0.1l0,0
		l-0.1,0.1l0,0c0,0-0.1,0.1-0.1,0.1l0,0l-0.1,0.1l-0.1,0l-0.1,0.1l0,0c0,0-0.1,0.1-0.1,0.1l-0.1,0l-0.1,0l-0.1,0l-0.1,0l-0.1,0
		c0,0-0.1,0-0.1,0.1l0,0l-0.1,0l-0.1,0l-0.1,0l-0.1,0l-0.1,0l-0.1,0l-0.1,0l-0.1,0l-0.1,0l-0.1,0c0,0-0.1,0-0.1,0.1l0,0l-0.1,0
		l-0.1,0l-0.1,0c0,0-0.1,0-0.1,0l-0.1,0l-0.1,0l-0.1,0l-0.1,0l-0.1,0c-0.2,0.7-0.5,1.3-1,1.8c-0.9,0.3-1.9,0.4-2.9,0.4
		c-1.4,0-2.8-0.3-3.9-0.8l0,0l0,0c-0.1,0-0.1,0-0.2,0l0,0l0,0c-0.1,0-0.1,0-0.2,0l0,0l0,0c-0.1,0-0.1,0-0.2,0l0,0l0,0h0
		c-0.1,0-0.1,0-0.2,0l0,0l0,0c-0.1,0-0.1,0-0.2,0l0,0l0,0h0c-0.1,0-0.1,0-0.2,0h0l0,0c-0.1,0-0.1,0-0.2,0l0,0c-0.1,0-0.1,0-0.2,0h0
		h0h0c-0.1,0-0.1,0-0.2,0c-4.3,0-7.7-2.6-7.7-5.9c0,0,0-0.1,0-0.1l0,0c0,0,0-0.1,0-0.1l0,0c0,0,0-0.1,0-0.1l0,0c0,0,0-0.1,0-0.1l0,0
		c0,0,0-0.1,0-0.1l0,0l0,0l0,0c0,0,0-0.1,0-0.1l0,0c0,0,0-0.1,0-0.1l0,0c0,0,0-0.1,0-0.1l0,0c0,0,0-0.1,0-0.1l0,0c0,0,0-0.1,0-0.1
		l0,0l0,0l0,0c0,0,0-0.1,0-0.1l0,0c0,0,0-0.1,0-0.1l0,0c0,0,0-0.1,0-0.1l0,0c0,0,0-0.1,0.1-0.1l0,0c0,0,0-0.1,0.1-0.1l0,0l0,0l0,0
		c0,0,0-0.1,0.1-0.1l0,0c0,0,0-0.1,0.1-0.1l0,0c0,0,0-0.1,0.1-0.1l0,0c0,0,0-0.1,0.1-0.1l0,0c0,0,0-0.1,0.1-0.1l0,0l0,0
		c0,0,0.1-0.1,0.1-0.1l0,0c0,0,0.1-0.1,0.1-0.1l0,0c0,0,0.1-0.1,0.1-0.1l0,0c0,0,0.1-0.1,0.1-0.1l0,0c0,0,0.1-0.1,0.1-0.1l0,0l0,0
		l0,0c0,0,0.1-0.1,0.1-0.1l0,0c0,0,0.1-0.1,0.1-0.1l0,0c0,0,0.1-0.1,0.1-0.1l0,0c0,0,0.1-0.1,0.1-0.1l0,0c0,0,0.1-0.1,0.1-0.1l0,0
		c0,0,0.1-0.1,0.1-0.1l0,0c0,0,0.1-0.1,0.1-0.1l0,0c0,0,0.1,0,0.1-0.1l0,0c0,0,0.1-0.1,0.1-0.1l0,0c0,0,0.1,0,0.1-0.1l0,0l0,0
		c0,0,0.1,0,0.1-0.1l0,0c0,0,0.1,0,0.1-0.1l0,0c0,0,0.1,0,0.1-0.1l0,0c0,0,0.1,0,0.1-0.1l0,0c0,0,0.1,0,0.1-0.1l0,0l0,0
		c0,0,0-0.1,0-0.1l0,0c0,0,0-0.1,0-0.1l0,0c0,0,0-0.1,0-0.1l0,0c0,0,0-0.1,0-0.1l0,0c0,0,0-0.1,0-0.1l0,0c0,0,0-0.1,0-0.1l0,0
		c0,0,0-0.1,0-0.1l0,0l0,0c0,0,0-0.1,0-0.1l0,0c0,0,0-0.1,0-0.1v0l0,0c0,0,0-0.1,0-0.1v0l0,0c0,0,0-0.1,0-0.1v0c0,0,0-0.1,0-0.1v0v0
		v0c0,0,0-0.1,0-0.1C654.9,663.6,655.4,662.5,656.1,661.6z"/>
</g>
<g>
	<g>
		<path class="st16" d="M0,737h750c0-3,0-2.8,0-4.4L0,733.9C0,736.4,0,734,0,737z"/>
		<path class="st16" d="M750,698H0c0,2,0,2,0,3h750C750,700,750,701,750,698z"/>
		<path class="st16" d="M750,704H0c0,17,0,20,0,27h750C750,722,750,719,750,704z"/>
	</g>
	<path class="st17" d="M750,701H0c0,2,0,2,0,3h750C750,704,750,703,750,701z"/>
	<path class="st17" d="M0,733.9l750-1.4c0,0,0-0.7,0-0.7L0,732.2C0,733.3,0,732.9,0,733.9z"/>
</g>
<g>
	<path class="st13" d="M549.4,689.7c-0.8,0-1.4-0.6-1.4-1.4c0-0.8,0.6-1.4,1.4-1.4c1.1,0,3-0.7,4.6-2.3c1.1-1.1,2-2.7,2.3-4.8
		c0.1-0.8,0.8-1.3,1.6-1.2c0.8,0.1,1.3,0.8,1.2,1.6c-0.3,2.8-1.6,4.9-3.1,6.4C553.8,688.8,551,689.7,549.4,689.7z"/>
	<path class="st13" d="M551,698.2c0.4,0.6,0.3,1.5-0.3,1.9c-0.6,0.4-1.5,0.3-1.9-0.3c-1.3-1.8-1.8-5-1.7-8.6c0.1-3.8,0.8-8.1,2-11.3
		c0.3-0.7,1.1-1.1,1.8-0.9c0.7,0.3,1.1,1.1,0.9,1.8c-1.1,3-1.7,6.9-1.8,10.5C549.8,694.4,550.1,697,551,698.2z"/>
	<g>
		<path class="st14" d="M553.8,683.1L553.8,683.1L553.8,683.1c0.1,0,0.1,0,0.2,0l0,0c0.1,0,0.1,0,0.2,0l0,0l0,0c0.1,0,0.1,0,0.2,0
			l0,0l0,0c0.1,0,0.1,0,0.2,0l0,0l0,0c0.1,0,0.1,0,0.2,0l0,0h0c0.1,0,0.1,0,0.2,0l0,0h0l0,0c0.1,0,0.1,0,0.2,0h0c0.1,0,0.1,0,0.2,0
			l0,0h0h0c0.1,0,0.1,0,0.2,0c4.4,0,8-2.7,8-6.1c0,0,0-0.1,0-0.1l0,0c0,0,0-0.1,0-0.1l0,0c0,0,0-0.1,0-0.1l0,0c0,0,0-0.1,0-0.1l0,0
			c0,0,0-0.1,0-0.1l0,0v0l0,0c0,0,0-0.1,0-0.1l0,0c0,0,0-0.1,0-0.1l0,0c0,0,0-0.1,0-0.1l0,0c0,0,0-0.1,0-0.1l0,0c0,0,0-0.1,0-0.1
			l0,0l0,0c0,0,0-0.1,0-0.1l0,0c0,0,0-0.1,0-0.1l0,0c0,0,0-0.1,0-0.1l0,0c0,0,0-0.1-0.1-0.1l0,0c0,0,0-0.1-0.1-0.1l0,0l0,0l0,0
			c0,0,0-0.1-0.1-0.1l0,0c0,0,0-0.1-0.1-0.1l0,0c0,0,0-0.1-0.1-0.1l0,0c0,0,0-0.1-0.1-0.1l0,0c0,0,0-0.1-0.1-0.1l0,0l0,0
			c0,0-0.1-0.1-0.1-0.1l0,0c0,0-0.1-0.1-0.1-0.1l0,0l-0.1-0.1l0,0c0,0-0.1-0.1-0.1-0.1l0,0c0,0,0-0.1-0.1-0.1l0,0l-0.1-0.1l0,0
			c0,0-0.1-0.1-0.1-0.1l0,0c0,0-0.1-0.1-0.1-0.1l0,0c0,0-0.1-0.1-0.1-0.1l0,0l-0.1-0.1l0,0c0,0-0.1-0.1-0.1-0.1l0,0l-0.1-0.1
			l-0.1-0.1l-0.1,0l0,0c0,0-0.1-0.1-0.1-0.1l0,0l-0.1-0.1l-0.1,0l-0.1-0.1l0,0c0,0-0.1,0-0.1-0.1l0,0l-0.1-0.1l-0.1,0
			c0,0-0.1,0-0.1-0.1l-0.1,0l-0.1-0.1l0,0l0-0.1l0,0c0,0,0-0.1,0-0.1l0,0c0,0,0-0.1,0-0.1l0,0c0,0,0-0.1,0-0.1l0,0c0,0,0-0.1,0-0.1
			l0,0l0,0c0,0,0-0.1,0-0.1l0,0c0,0,0-0.1,0-0.1l0,0c0,0,0-0.1,0-0.1l0,0l0,0c0-0.1,0-0.2,0-0.3l0,0l0,0v0c0,0,0-0.1,0-0.1l0,0v0v0
			c0,0,0-0.1,0-0.1l0,0v0v0c0-0.1,0-0.1,0-0.2c0-3.4-3.6-6.1-8-6.1c-0.1,0-0.1,0-0.2,0l0,0c-0.1,0-0.1,0-0.2,0l0,0
			c-0.1,0-0.1,0-0.2,0l0,0c0,0-0.1,0-0.1,0l-0.1,0c0,0-0.1,0-0.1,0l0,0l0,0c-0.1,0-0.1,0-0.2,0l0,0l-0.1,0l0,0c-0.1,0-0.1,0-0.2,0
			l0,0c0,0-0.1,0-0.1,0l0,0c-0.1,0-0.1,0-0.2,0l0,0c-0.1,0-0.1,0-0.2,0l0,0l-0.1,0l-0.1,0c0,0-0.1,0-0.1,0l0,0h0l0,0
			c-0.1,0-0.1,0-0.2,0l0,0l-0.1,0l-0.1,0c0,0-0.1,0-0.1,0l-0.1,0l-0.1,0l-0.1,0l-0.1,0l0,0c0,0-0.1,0-0.1,0.1l-0.1,0l-0.1,0l-0.1,0
			c0,0-0.1,0-0.1,0.1l-0.1,0l-0.1,0l-0.1,0l-0.1,0l-0.1,0c0,0-0.1,0-0.1,0.1l-0.1,0l-0.1,0l-0.1,0l-0.1,0.1l-0.1,0l-0.1,0l-0.1,0
			l-0.1,0l-0.1,0l-0.1,0c0,0-0.1,0-0.1,0.1l-0.1,0l-0.1,0l-0.1,0l-0.1,0c0,0-0.1,0-0.1,0.1l0,0l-0.1,0.1l-0.1,0l-0.1,0.1l0,0
			c0,0-0.1,0.1-0.1,0.1l0,0l-0.1,0.1l0,0l-0.1,0.1c0,0-0.1,0.1-0.1,0.1l-0.1,0.1l0,0l-0.1,0.1l0,0c-0.1,0.1-0.1,0.2-0.2,0.2l0,0
			c0,0,0,0-0.1,0.1c0,0,0,0.1-0.1,0.1c0,0,0,0-0.1,0.1l0,0l-0.1,0.1l0,0c0,0.1-0.1,0.1-0.1,0.2l0,0l-0.1,0.1l0,0l-0.1,0.1v0l-0.1,0
			c-4.4,0-8,2.7-8,6.1c0,0,0,0.1,0,0.1l0,0.1c0,0,0,0.1,0,0.1l0,0c0,0,0,0.1,0,0.1l0,0c0,0,0,0.1,0,0.1l0,0c0,0,0,0.1,0,0.1l0,0
			c0,0,0,0.1,0,0.1l0,0c0,0,0,0.1,0,0.1l0,0c0,0,0,0.1,0,0.1l0,0c0,0,0,0.1,0,0.1l0,0c0,0,0,0.1,0,0.1l0,0c0,0,0,0.1,0,0.1l0,0
			c0,0,0,0.1,0,0.1l0,0c0,0,0,0.1,0,0.1l0,0c0,0,0,0.1,0.1,0.1l0,0l0,0l0,0c0,0,0,0.1,0.1,0.1l0,0c0,0,0,0.1,0,0.1l0,0
			c0,0,0,0.1,0.1,0.1l0,0l0.1,0.1l0,0l0.1,0.1l0,0c0,0,0.1,0.1,0.1,0.1l0,0c0,0,0,0.1,0.1,0.1l0,0c0,0,0,0.1,0.1,0.1l0,0
			c0,0,0.1,0.1,0.1,0.1l0,0l0.1,0.1l0,0l0.1,0.1l0,0c0,0,0.1,0.1,0.1,0.1l0,0l0.1,0.1l0,0c0,0,0.1,0.1,0.1,0.1l0.1,0.1l0.1,0.1
			l0.1,0l0.1,0.1l0,0c0,0,0.1,0,0.1,0.1l0.1,0.1l0.1,0l0.1,0l0.1,0.1l0.1,0l0,0c0,0,0.1,0,0.1,0.1l0,0l0.1,0l0.1,0l0.1,0l0.1,0
			c0,0,0.1,0,0.1,0.1l0.1,0l0.1,0l0.1,0l0.1,0l0.1,0c0,0,0.1,0,0.1,0.1l0.1,0l0.1,0l0.1,0l0.1,0l0.1,0c0,0,0.1,0,0.1,0.1l0.1,0
			l0.1,0l0.1,0l0.1,0l0,0c0,0,0.1,0,0.1,0.1h0l0.1,0l0.1,0l0.1,0l0.1,0l0.1,0c0.8,2.7,4,4.7,7.8,4.7
			C551.2,683.9,552.6,683.6,553.8,683.1L553.8,683.1z M545.7,667L545.7,667C545.6,667.1,545.6,667,545.7,667z"/>
	</g>
	<g>
		<path class="st15" d="M563.1,679.2c0.3-0.7,0.5-1.4,0.5-2.1c0,0,0-0.1,0-0.1l0,0c0,0,0-0.1,0-0.1l0,0c0,0,0-0.1,0-0.1l0,0
			c0,0,0-0.1,0-0.1l0,0c0,0,0-0.1,0-0.1l0,0v0l0,0c0,0,0-0.1,0-0.1l0,0c0,0,0-0.1,0-0.1l0,0c0,0,0-0.1,0-0.1l0,0c0,0,0-0.1,0-0.1
			l0,0c0,0,0-0.1,0-0.1l0,0l0,0c0,0,0-0.1,0-0.1l0,0c0,0,0-0.1,0-0.1l0,0c0,0,0-0.1,0-0.1l0,0c0,0,0-0.1-0.1-0.1l0,0
			c0,0,0-0.1-0.1-0.1l0,0l0,0l0,0c0,0,0-0.1-0.1-0.1l0,0c0,0,0-0.1-0.1-0.1l0,0c0,0,0-0.1-0.1-0.1l0,0c0,0,0-0.1-0.1-0.1l0,0
			c0,0,0-0.1-0.1-0.1l0,0l0,0c0,0-0.1-0.1-0.1-0.1l0,0c0,0-0.1-0.1-0.1-0.1l0,0l-0.1-0.1l0,0c0,0-0.1-0.1-0.1-0.1l0,0
			c0,0,0-0.1-0.1-0.1l0,0l-0.1-0.1l0,0c0,0-0.1-0.1-0.1-0.1l0,0c0,0-0.1-0.1-0.1-0.1l0,0c0,0-0.1-0.1-0.1-0.1l0,0l-0.1-0.1l0,0
			c0,0-0.1-0.1-0.1-0.1l0,0l-0.1-0.1l-0.1-0.1l-0.1,0l0,0c0,0-0.1-0.1-0.1-0.1l0,0l-0.1-0.1l-0.1,0l-0.1-0.1l0,0c0,0-0.1,0-0.1-0.1
			l0,0l-0.1-0.1l-0.1,0c0,0-0.1,0-0.1-0.1l-0.1,0l-0.1-0.1l0,0l0-0.1l0,0c0,0,0-0.1,0-0.1l0,0c0,0,0-0.1,0-0.1l0,0c0,0,0-0.1,0-0.1
			l0,0c0,0,0-0.1,0-0.1l0,0l0,0c0,0,0-0.1,0-0.1l0,0c0,0,0-0.1,0-0.1l0,0c0,0,0-0.1,0-0.1l0,0l0,0c0-0.1,0-0.2,0-0.3l0,0l0,0v0
			c0,0,0-0.1,0-0.1l0,0v0v0c0,0,0-0.1,0-0.1l0,0v0v0c0-0.1,0-0.1,0-0.2c0-3.4-3.6-6.1-8-6.1c-0.1,0-0.1,0-0.2,0l0,0
			c-0.1,0-0.1,0-0.2,0l0,0c-0.1,0-0.1,0-0.2,0l0,0c0,0-0.1,0-0.1,0l-0.1,0c0,0-0.1,0-0.1,0l0,0l0,0c-0.1,0-0.1,0-0.2,0l0,0l-0.1,0
			l0,0c-0.1,0-0.1,0-0.2,0l0,0c0,0-0.1,0-0.1,0l0,0c-0.1,0-0.1,0-0.2,0l0,0c-0.1,0-0.1,0-0.2,0l0,0l-0.1,0l-0.1,0c0,0-0.1,0-0.1,0
			l0,0h0l0,0c-0.1,0-0.1,0-0.2,0l0,0l-0.1,0l-0.1,0c0,0-0.1,0-0.1,0l-0.1,0l-0.1,0l-0.1,0l-0.1,0l0,0c0,0-0.1,0-0.1,0.1l-0.1,0
			l-0.1,0l-0.1,0c0,0-0.1,0-0.1,0.1l-0.1,0l-0.1,0l-0.1,0l-0.1,0l-0.1,0c0,0-0.1,0-0.1,0.1l-0.1,0l-0.1,0l-0.1,0l-0.1,0.1l-0.1,0
			l-0.1,0l-0.1,0l-0.1,0l-0.1,0l-0.1,0c0,0-0.1,0-0.1,0.1l-0.1,0l-0.1,0l-0.1,0l-0.1,0c0,0-0.1,0-0.1,0.1l0,0l-0.1,0.1l-0.1,0
			l-0.1,0.1l0,0c0,0-0.1,0.1-0.1,0.1l0,0l-0.1,0.1l0,0l-0.1,0.1c0,0-0.1,0.1-0.1,0.1l-0.1,0.1l0,0l-0.1,0.1l0,0
			c-0.1,0.1-0.1,0.2-0.2,0.2l0,0c0,0,0,0-0.1,0.1c0,0,0,0.1-0.1,0.1c0,0,0,0-0.1,0.1l0,0l-0.1,0.1l0,0c0,0.1-0.1,0.1-0.1,0.2l0,0
			l-0.1,0.1l0,0l-0.1,0.1v0l-0.1,0c-1.7,0-3.3,0.4-4.7,1.1c-0.3,0.7-0.5,1.4-0.5,2.1c0,0,0,0.1,0,0.1l0,0.1c0,0,0,0.1,0,0.1l0,0
			c0,0,0,0.1,0,0.1l0,0c0,0,0,0.1,0,0.1l0,0c0,0,0,0.1,0,0.1l0,0c0,0,0,0.1,0,0.1l0,0c0,0,0,0.1,0,0.1l0,0c0,0,0,0.1,0,0.1l0,0
			c0,0,0,0.1,0,0.1l0,0c0,0,0,0.1,0,0.1l0,0c0,0,0,0.1,0,0.1l0,0c0,0,0,0.1,0,0.1l0,0c0,0,0,0.1,0,0.1l0,0c0,0,0,0.1,0.1,0.1l0,0
			l0,0l0,0c0,0,0,0.1,0.1,0.1l0,0c0,0,0,0.1,0,0.1l0,0c0,0,0,0.1,0.1,0.1l0,0l0.1,0.1l0,0l0.1,0.1l0,0c0,0,0.1,0.1,0.1,0.1l0,0
			c0,0,0,0.1,0.1,0.1l0,0c0,0,0,0.1,0.1,0.1l0,0c0,0,0.1,0.1,0.1,0.1l0,0l0.1,0.1l0,0l0.1,0.1l0,0c0,0,0.1,0.1,0.1,0.1l0,0l0.1,0.1
			l0,0c0,0,0.1,0.1,0.1,0.1l0.1,0.1l0.1,0.1l0.1,0l0.1,0.1l0,0c0,0,0.1,0,0.1,0.1l0.1,0.1l0.1,0l0.1,0l0.1,0l0.1,0l0,0
			c0,0,0.1,0,0.1,0.1l0,0l0.1,0l0.1,0l0.1,0l0.1,0c0,0,0.1,0,0.1,0.1l0.1,0l0.1,0l0.1,0l0.1,0l0.1,0c0,0,0.1,0,0.1,0.1l0.1,0l0.1,0
			l0.1,0l0.1,0l0.1,0c0,0,0.1,0,0.1,0.1l0.1,0l0.1,0l0.1,0l0.1,0l0,0c0,0,0.1,0,0.1,0.1l0,0l0.1,0l0.1,0l0.1,0l0.1,0l0.1,0
			c0.8,2.7,4,4.7,7.8,4.7c1.5,0,2.9-0.3,4.1-0.9h0l0,0c0.1,0,0.1,0,0.2,0l0,0c0.1,0,0.1,0,0.2,0l0,0l0,0c0.1,0,0.1,0,0.2,0l0,0l0,0
			c0.1,0,0.1,0,0.2,0l0,0l0,0c0.1,0,0.1,0,0.2,0l0,0l0,0c0.1,0,0.1,0,0.2,0l0,0l0,0h0c0.1,0,0.1,0,0.2,0l0,0c0.1,0,0.1,0,0.2,0h0h0
			h0c0.1,0,0.1,0,0.2,0C560.2,680.4,561.8,679.9,563.1,679.2L563.1,679.2z M545.7,667L545.7,667C545.6,667.1,545.6,667,545.7,667z"
			/>
	</g>
</g>
<g>
	<rect x="24.9" y="716.7" class="st1" width="14.2" height="2.3"/>
	<rect x="42.9" y="716.7" class="st1" width="14.2" height="2.3"/>
	<rect x="6.9" y="716.7" class="st1" width="14.2" height="2.3"/>
	<rect x="0" y="716.7" class="st1" width="3.1" height="2.3"/>
	<rect x="60.9" y="716.7" class="st1" width="14.2" height="2.3"/>
	<rect x="78.9" y="716.7" class="st1" width="14.2" height="2.3"/>
	<rect x="96.9" y="716.7" class="st1" width="14.2" height="2.3"/>
	<rect x="114.9" y="716.7" class="st1" width="14.2" height="2.3"/>
	<rect x="132.9" y="716.7" class="st1" width="14.2" height="2.3"/>
	<rect x="151" y="716.7" class="st1" width="14.2" height="2.3"/>
	<rect x="169" y="716.7" class="st1" width="14.2" height="2.3"/>
	<rect x="187" y="716.7" class="st1" width="14.2" height="2.3"/>
	<rect x="205" y="716.7" class="st1" width="14.2" height="2.3"/>
	<rect x="223" y="716.7" class="st1" width="14.2" height="2.3"/>
	<rect x="241" y="716.7" class="st1" width="14.2" height="2.3"/>
	<rect x="259" y="716.7" class="st1" width="14.2" height="2.3"/>
	<rect x="277" y="716.7" class="st1" width="14.2" height="2.3"/>
	<rect x="295" y="716.7" class="st1" width="14.2" height="2.3"/>
	<rect x="313" y="716.7" class="st1" width="14.2" height="2.3"/>
	<rect x="331" y="716.7" class="st1" width="14.2" height="2.3"/>
	<rect x="349" y="716.7" class="st1" width="14.2" height="2.3"/>
	<rect x="367" y="716.7" class="st1" width="14.2" height="2.3"/>
	<rect x="385" y="716.7" class="st1" width="14.2" height="2.3"/>
	<rect x="403" y="716.7" class="st1" width="14.2" height="2.3"/>
	<rect x="421" y="716.7" class="st1" width="14.2" height="2.3"/>
	<rect x="439" y="716.7" class="st1" width="14.2" height="2.3"/>
	<rect x="457" y="716.7" class="st1" width="14.2" height="2.3"/>
	<rect x="475.1" y="716.7" class="st1" width="14.2" height="2.3"/>
	<rect x="493.1" y="716.7" class="st1" width="14.2" height="2.3"/>
	<rect x="511.1" y="716.7" class="st1" width="14.2" height="2.3"/>
	<rect x="529.1" y="716.7" class="st1" width="14.2" height="2.3"/>
	<rect x="547.1" y="716.7" class="st1" width="14.2" height="2.3"/>
	<rect x="565.1" y="716.7" class="st1" width="14.2" height="2.3"/>
	<rect x="583.1" y="716.7" class="st1" width="14.2" height="2.3"/>
	<rect x="601.1" y="716.7" class="st1" width="14.2" height="2.3"/>
	<rect x="619.1" y="716.7" class="st1" width="14.2" height="2.3"/>
	<rect x="637.1" y="716.7" class="st1" width="14.2" height="2.3"/>
	<rect x="655.1" y="716.7" class="st1" width="14.2" height="2.3"/>
	<rect x="673.1" y="716.7" class="st1" width="14.2" height="2.3"/>
	<rect x="691.1" y="716.7" class="st1" width="14.2" height="2.3"/>
	<rect x="709.1" y="716.7" class="st1" width="14.2" height="2.3"/>
	<rect x="727.1" y="716.7" class="st1" width="14.2" height="2.3"/>
	<rect x="745.1" y="716.7" class="st1" width="4.9" height="2.3"/>
	<path class="st1" d="M745.1,716.7h1.4c0,0.4,0,0.8,0,1.1v0c0,0.4,0,0.8,0,1.1h-1.4V716.7z"/>
</g>
<g>
	<path class="st18" d="M146.4,691.8H158c5,0,9.9,6.1,14.4,9c3.2,2.1,4.9,2.1,6.6,2.5c2.5,0.6,3.9,2.2,4.6,3.5
		c0.6,1.2,0.9,4.2,0.9,5.6c0,1.6-1.1,2.3-2.1,2.3l-49.3,0c-1,0-1.6-1.3-1.7-2.3c-0.1-1.7-0.4-4.7,0-6.4
		C132.6,700.6,136.9,691.8,146.4,691.8z"/>
	<path class="st19" d="M184.5,712.4c0-0.2,0-0.4,0-0.7l-53.2-0.7c0,0.5,0.1,1,0.1,1.4c0.1,1,0.6,2.3,1.7,2.3l49.3,0
		C183.4,714.7,184.5,714,184.5,712.4z"/>
	<path class="st19" d="M135.6,714.7c0-5.1,3.2-7.1,7.1-7.1c3.9,0,7.1,2,7.1,7.1L135.6,714.7z"/>
	<circle class="st20" cx="142.6" cy="714.8" r="5.6"/>
	<circle class="st21" cx="142.6" cy="714.8" r="3.7"/>
	<path class="st19" d="M165.5,714.7c0-5.1,3.2-7.1,7.1-7.1c3.9,0,7.1,2,7.1,7.1L165.5,714.7z"/>
	<circle class="st20" cx="172.5" cy="714.8" r="5.6"/>
	<circle class="st21" cx="172.5" cy="714.8" r="3.7"/>
	<path class="st22" d="M158.6,693.2c0,0,6.8,1.2,10.8,8.8l-10.8,0V693.2z"/>
	<rect x="145.9" y="693.2" class="st22" width="11.4" height="8.8"/>
	<path class="st22" d="M144.6,693.2v8.8c0,0-5.5,0-8.7,0C132.7,702,138.3,693.4,144.6,693.2z"/>
	<path class="st19" d="M159.5,703.6c0,0.2-0.2,0.4-0.4,0.4l-1.5,0c-0.2,0-0.4-0.2-0.4-0.4v-0.3c0-0.2,0.2-0.4,0.4-0.4l1.5,0
		c0.2,0,0.4,0.2,0.4,0.4V703.6z"/>
	<path class="st19" d="M147.6,703.6c0,0.2-0.2,0.4-0.4,0.4l-1.5,0c-0.2,0-0.4-0.2-0.4-0.4v-0.3c0-0.2,0.2-0.4,0.4-0.4l1.5,0
		c0.2,0,0.4,0.2,0.4,0.4L147.6,703.6z"/>
	<path class="st19" d="M170.8,702.3c0,0.3-0.3,0.5-0.7,0.5l-2-0.3c-0.3,0-0.5-0.3-0.5-0.7l0.1-0.4c0-0.3,0.3-0.5,0.7-0.5l2,0.3
		c0.3,0,0.5,0.3,0.5,0.7L170.8,702.3z"/>
	<path class="st23" d="M182.1,704.9c-0.7,0.4-1.2,1.3-1.2,2.2c0,1.4,1,2.5,2.3,2.5c0.4,0,0.7-0.1,1.1-0.3c-0.2-1-0.4-2-0.7-2.6
		C183.3,706.2,182.8,705.5,182.1,704.9z"/>
</g>
<rect y="731" class="st1" width="750" height="2.9"/>
</svg>
