<?xml version="1.0" encoding="utf-8"?>
<!-- Generator: Adobe Illustrator 20.1.0, SVG Export Plug-In . SVG Version: 6.00 Build 0)  -->
<svg version="1.1" id="Capa_1" xmlns="http://www.w3.org/2000/svg" xmlns:xlink="http://www.w3.org/1999/xlink" x="0px" y="0px"
	 viewBox="0 0 282 100" style="enable-background:new 0 0 282 100;" xml:space="preserve">
<style type="text/css">
	.st0{fill:#333B48;}
	.st1{fill:#999999;}
	.st2{fill:#FFFFFF;}
	.st3{fill:#F03A2F;}
</style>
<path class="st0" d="M191.6,22.6c-1.3-3.7-3.5-6.7-6.6-8.9c-3.1-2.2-6.9-3.4-11.3-3.4c-3.2,0-6.4,0.7-9.7,2.2
	c-0.5,0.2-1.1,0.5-1.6,0.8c-2.5-1.7-6.1-2.9-11.1-2.9c-1.1,0-2.1,0.1-3.2,0.2c-1.1,0.1-2.1,0.3-3.1,0.5c-0.8,0.2-1.5,0.3-2.1,0.5
	c-1.5,0.4-2.8,1.2-3.8,2.3c0,0,0,0,0,0c0,0,0,0,0,0c-2.4-1.9-6-3.5-11.2-3.5c-3.4,0-6.8,0.7-10.1,2.2c-0.5,0.2-1,0.4-1.4,0.7
	c-3.7-2.4-8.1-2.8-10.5-2.8c-3.3,0-6.6,0.7-9.8,2.1c-0.4,0.2-0.7,0.3-1,0.5c-0.4-0.4-0.9-0.7-1.4-1c-3.9-2.5-8.7-3-12-3
	c-5,0-10,1.1-14.3,3.2c-2.5-1.1-5.3-1.7-8.4-1.7c-3.2,0-6.4,0.7-9.7,2.2c-0.5,0.2-1.1,0.5-1.6,0.8c-2.5-1.7-6.1-2.9-11.1-2.9
	c-1.1,0-2.1,0.1-3.2,0.2c-1.1,0.1-2.1,0.3-3.1,0.5c-0.8,0.2-1.5,0.3-2.1,0.5c-2.3,0.6-4.3,2.2-5.3,4.3L20.5,21
	c-1.1,2.5-1,5.3,0.5,7.6c0.5,0.9,1.2,1.6,2,2.2c0,0.1-0.1,0.2-0.1,0.2c-0.8,2-1.7,4.4-2.8,7.1c-1.1,2.7-2.3,5.6-3.6,8.7
	c-1.3,3.1-2.5,6.1-3.6,8.9c-1.1,2.8-2.1,5.2-3,7.4C9,65.3,8.4,66.8,8,67.6c-3,7.4-3.5,13.1-1.5,17.8c1.4,3.2,5.2,8.6,15.7,8.6
	c1,0,2.1-0.1,3.1-0.2c1.1-0.1,2.1-0.3,3.1-0.5c0.8-0.2,1.5-0.3,2.1-0.5c2.3-0.6,4.2-2.1,5.2-4.2l2.4-4.9c0.6-1.1,0.9-2.4,0.9-3.7
	c0-2.6-1.2-4.8-3.1-6.3c0.8,0.1,1.7,0.2,2.6,0.2c7.3,0,14.2-2.5,20.7-7.4c0.8-0.6,1.6-1.3,2.4-2c0.1,0.3,0.2,0.7,0.4,1
	c1.7,3.8,5.9,8.4,15.7,8.4c1.7,0,3.2-0.1,4.6-0.3c0.5,0.1,1,0.1,1.6,0.1c0.7,0,1.5-0.1,2.2-0.3c1.3-0.3,2.6-1,3.5-2
	c3.5,2,7.5,2.4,10.2,2.4c1.7,0,3.2-0.1,4.6-0.3c0.5,0.1,1,0.1,1.6,0.1c0.7,0,1.5-0.1,2.2-0.3c1.5-0.4,2.8-1.1,3.8-2.2
	c2.1,1.3,4.9,2.4,8.6,2.6c-1.1,4.6-0.9,8.3,0.5,11.6c1.4,3.2,5.2,8.6,15.7,8.6c1,0,2.1-0.1,3.1-0.2c1.1-0.1,2.1-0.3,3.1-0.5
	c0.8-0.2,1.5-0.3,2.1-0.5c2.3-0.6,4.2-2.1,5.2-4.2l2.4-4.9c0.6-1.1,0.9-2.4,0.9-3.7c0-2.6-1.2-4.8-3.1-6.3c0.8,0.1,1.7,0.2,2.6,0.2
	c7.3,0,14.2-2.5,20.7-7.4c6.2-4.7,11.4-11.8,15.4-21.3c0,0,0-0.1,0-0.1c1.6-4,2.7-7.8,3.1-11.4C193.1,29.6,192.8,25.9,191.6,22.6z"
	/>
<g>
	<path class="st1" d="M206.1,58.3c0.1,0.2,0.2,0.4,0.1,0.7l-2.6,14.3c0,0.3-0.2,0.5-0.4,0.7s-0.4,0.3-0.7,0.3
		c-0.3,0-0.5-0.1-0.6-0.3c-0.1-0.2-0.2-0.4-0.1-0.7l0.4-2.1c-0.7,1-1.5,1.8-2.6,2.4c-1.1,0.7-2.2,1-3.4,1c-1.3,0-2.4-0.4-3.3-1.1
		c-0.9-0.7-1.6-1.8-1.9-3s-0.4-2.7-0.1-4.3c0.3-1.6,0.8-3,1.7-4.3c0.8-1.3,1.8-2.3,3-3s2.4-1.1,3.7-1.1c1.2,0,2.2,0.3,3.1,0.9
		c0.9,0.6,1.5,1.4,1.8,2.4l0.4-2c0-0.3,0.2-0.5,0.4-0.7c0.2-0.2,0.4-0.3,0.7-0.3C205.8,58,206,58.1,206.1,58.3z M199.7,71.9
		c0.9-0.6,1.7-1.4,2.3-2.4c0.6-1,1.1-2.2,1.3-3.4c0.2-1.2,0.2-2.3-0.1-3.4c-0.3-1-0.8-1.8-1.5-2.4s-1.6-0.9-2.6-0.9s-2,0.3-2.9,0.9
		c-0.9,0.6-1.7,1.4-2.3,2.4c-0.6,1-1.1,2.1-1.3,3.4c-0.2,1.3-0.2,2.4,0.1,3.4c0.3,1,0.8,1.8,1.5,2.4c0.7,0.6,1.6,0.9,2.6,0.9
		C197.8,72.7,198.8,72.4,199.7,71.9z"/>
	<path class="st1" d="M225.1,51c0.1,0.2,0.2,0.4,0.1,0.7l-3.9,21.5c0,0.3-0.2,0.5-0.4,0.7s-0.4,0.3-0.7,0.3c-0.3,0-0.5-0.1-0.6-0.3
		c-0.1-0.2-0.2-0.4-0.1-0.7L220,71c-0.7,1-1.5,1.8-2.6,2.5s-2.2,1-3.4,1c-1.3,0-2.4-0.4-3.3-1.1c-0.9-0.7-1.6-1.7-1.9-3
		c-0.4-1.3-0.4-2.7-0.1-4.3c0.3-1.6,0.8-3,1.7-4.3c0.8-1.3,1.8-2.3,3-3c1.2-0.7,2.4-1.1,3.7-1.1c1.2,0,2.2,0.3,3,0.9
		s1.5,1.4,1.8,2.4l1.7-9.3c0-0.3,0.2-0.5,0.4-0.7c0.2-0.2,0.4-0.3,0.7-0.3C224.8,50.7,225,50.8,225.1,51z M217.4,71.9
		c0.9-0.6,1.7-1.4,2.3-2.4s1.1-2.2,1.3-3.4c0.2-1.2,0.2-2.4-0.1-3.4c-0.3-1-0.8-1.8-1.5-2.4c-0.7-0.6-1.6-0.9-2.6-0.9
		s-2,0.3-2.9,0.9s-1.7,1.4-2.3,2.4c-0.6,1-1.1,2.1-1.3,3.4c-0.2,1.3-0.2,2.4,0.1,3.4c0.3,1,0.8,1.8,1.5,2.4c0.7,0.6,1.6,0.9,2.6,0.9
		C215.5,72.7,216.5,72.4,217.4,71.9z"/>
	<path class="st1" d="M249.4,59.6c0.6,1.2,0.8,2.7,0.4,4.6l-1.6,9c0,0.3-0.2,0.5-0.4,0.7c-0.2,0.2-0.4,0.3-0.7,0.3
		c-0.3,0-0.5-0.1-0.6-0.3s-0.2-0.4-0.1-0.7l1.6-8.9c0.2-1.4,0.1-2.5-0.3-3.4s-1.3-1.3-2.6-1.3c-0.8,0-1.6,0.2-2.5,0.6
		c-0.8,0.4-1.5,1-2.1,1.7c-0.6,0.7-0.9,1.5-1.1,2.4l-1.6,8.9c0,0.3-0.2,0.5-0.4,0.7c-0.2,0.2-0.4,0.3-0.7,0.3s-0.5-0.1-0.6-0.3
		s-0.2-0.4-0.1-0.7l1.6-9c0.2-1.4,0.2-2.5-0.3-3.3c-0.4-0.9-1.3-1.3-2.5-1.3c-0.8,0-1.6,0.2-2.4,0.6c-0.8,0.4-1.5,1-2,1.7
		c-0.6,0.7-0.9,1.5-1.1,2.3l-1.6,9c0,0.3-0.2,0.5-0.4,0.7c-0.2,0.2-0.4,0.3-0.7,0.3c-0.3,0-0.5-0.1-0.6-0.3s-0.2-0.4-0.1-0.7
		l2.5-14.2c0-0.3,0.2-0.5,0.4-0.7c0.2-0.2,0.4-0.3,0.7-0.3c0.3,0,0.4,0.1,0.6,0.3c0.1,0.2,0.2,0.4,0.1,0.7l-0.3,1.8
		c0.7-0.9,1.5-1.6,2.5-2.2c1-0.6,2-0.9,3-0.9c1.1,0,2.1,0.3,2.8,0.9c0.7,0.6,1.1,1.5,1.3,2.6c0.6-0.9,1.5-1.7,2.7-2.4
		c1.2-0.7,2.4-1,3.5-1C247.6,57.9,248.8,58.5,249.4,59.6z"/>
	<path class="st1" d="M254.1,73.9c-0.2,0.2-0.4,0.3-0.7,0.3c-0.3,0-0.5-0.1-0.6-0.3c-0.1-0.2-0.2-0.4-0.1-0.7l2.6-14.6
		c0-0.3,0.2-0.5,0.4-0.7c0.2-0.2,0.4-0.3,0.7-0.3c0.3,0,0.4,0.1,0.6,0.3c0.1,0.2,0.2,0.4,0.1,0.7l-2.6,14.6
		C254.4,73.5,254.3,73.7,254.1,73.9z M255.9,55.3c-0.2-0.2-0.2-0.5-0.2-0.9l0.1-0.3c0.1-0.4,0.2-0.7,0.5-0.9c0.3-0.2,0.6-0.3,1-0.3
		c0.8,0,1.1,0.4,1,1.2l-0.1,0.3c-0.1,0.4-0.2,0.7-0.5,0.9c-0.2,0.2-0.6,0.3-0.9,0.3C256.4,55.6,256.1,55.5,255.9,55.3z"/>
	<path class="st1" d="M272.7,59.3c0.6,1.2,0.8,2.7,0.5,4.6l-1.7,9.3c0,0.3-0.2,0.5-0.4,0.7c-0.2,0.2-0.4,0.3-0.7,0.3
		c-0.3,0-0.5-0.1-0.6-0.3c-0.1-0.2-0.2-0.4-0.1-0.7l1.7-9.2c0.2-1.4,0.1-2.5-0.4-3.3s-1.4-1.3-2.7-1.3c-0.8,0-1.7,0.2-2.5,0.6
		c-0.8,0.4-1.5,1-2.1,1.7c-0.6,0.7-1,1.5-1.1,2.3l-1.7,9.2c0,0.3-0.2,0.5-0.4,0.7c-0.2,0.2-0.4,0.3-0.7,0.3c-0.3,0-0.5-0.1-0.6-0.3
		s-0.2-0.4-0.1-0.7l2.5-14.2c0-0.3,0.2-0.5,0.4-0.7c0.2-0.2,0.4-0.3,0.7-0.3c0.3,0,0.4,0.1,0.6,0.3c0.1,0.2,0.2,0.4,0.1,0.7
		l-0.3,1.7c0.7-0.9,1.6-1.7,2.7-2.3c1.1-0.6,2.2-0.9,3.2-0.9C270.8,57.6,272,58.2,272.7,59.3z"/>
</g>
<g>
	<path class="st2" d="M139.6,49c-1,2.2-2.4,3.8-4,5c-1.6,1.2-3.1,1.9-4.5,2.2c-1.4,0.2-2.4,0-3.2-0.6c-0.8-0.6-0.9-1.7-0.2-3.2
		l7.7-18.8c2-5,2.3-8.8,0.8-11.4c-1.5-2.6-4.2-3.8-8.1-3.8c-2.3,0-4.6,0.5-6.9,1.5c-2.3,1-4.4,2.3-6.3,4c-1-3.7-3.9-5.5-8.8-5.5
		c-2.2,0-4.5,0.5-6.7,1.4c-2.2,1-4.3,2.2-6.2,3.8c-0.2-1-0.6-1.8-1.1-2.5c-0.6-0.9-1.4-1.8-2.5-2.5c-4.6-2.9-15.7-2.5-22.9,3.1
		l3,7.7c7.2-6.4,10.6-3.4,10.4-1.2c-0.1,0.5-0.2,1-0.5,1.5c-0.5,1-1.1,2.5-1.8,4.3c-0.7,1.8-1.5,3.7-2.3,5.8c-0.8,2-1.7,4-2.5,5.9
		c-0.8,1.9-1.4,3.5-1.9,4.8c-2.2,5.3-2.7,9.2-1.6,11.6c1.1,2.5,4,3.7,8.5,3.7c1.8,0,3.2-0.1,4.4-0.4c0.7-0.2,1.4-0.2,2-0.4l2.5-5.1
		h-1.2c-1.8,0-3-0.6-3.5-1.6c-0.5-1-0.4-2.3,0.4-4c0.2-0.6,0.7-1.9,1.4-3.6c0.7-1.8,1.5-3.7,2.3-5.8c0.8-2.1,1.7-4.2,2.6-6.3
		c0.9-2.1,1.6-3.8,2-5c0.2-0.6,0.3-1.1,0.5-1.6c0.2-0.5,0.4-1,0.5-1.4c1.2-1,2.4-1.8,3.6-2.3c1.2-0.5,2.2-0.7,3.1-0.5
		c0.9,0.1,1.5,0.5,2,1.2c0.4,0.7,0.4,1.6-0.1,2.8c-1.1,2.6-2.2,5.2-3.1,7.6c-0.9,2.1-1.7,4.2-2.5,6.2c-0.8,2.1-1.4,3.7-1.9,4.8
		c-2.2,5.3-2.8,9.2-1.6,11.7c1.2,2.5,4,3.8,8.6,3.8c1.8,0,3.2-0.1,4.4-0.4c0.7-0.2,1.4-0.2,2-0.4L109,60h-1.2
		c-1.8,0-2.9-0.6-3.4-1.6c-0.5-1-0.4-2.3,0.2-4l8.6-21c0.2-0.6,0.3-1.1,0.5-1.6c0.2-0.5,0.4-1,0.5-1.4c1.1-1,2.3-1.6,3.5-2
		c1.2-0.4,2.2-0.5,3.1-0.4c0.9,0.1,1.5,0.5,1.9,1.1c0.4,0.6,0.3,1.6-0.2,2.8L115,50.5c-2.1,5-2.4,8.9-0.8,11.5
		c1.5,2.6,4.2,3.9,8.2,3.9c1.9,0,3.9-0.4,5.8-1.1c2-0.7,3.8-1.7,5.5-2.9c1.7-1.2,3.3-2.6,4.7-4.3c1.4-1.6,2.5-3.4,3.3-5.3L139.6,49z
		"/>
	<g>
		<path class="st3" d="M22.2,87.6c-5.2,0-8.6-1.6-9.9-4.7c-1.3-3-0.7-7.2,1.6-12.9c0.3-0.8,0.9-2.3,1.8-4.4c0.9-2.2,1.9-4.6,3-7.4
			c1.1-2.8,2.3-5.8,3.6-8.8c1.3-3.1,2.5-6,3.6-8.7c1.1-2.8,2.1-5.1,2.9-7.2c0.8-2,1.4-3.5,1.7-4.2c0.4-0.8,0.7-1.8,0.3-2.5
			c-0.3-0.6-1.5-0.6-2.1-0.6h-3.6l3.8-8.1l0.7-0.2c0.7-0.2,1.3-0.3,2.1-0.5c0.7-0.2,1.5-0.3,2.3-0.4c0.8-0.1,1.7-0.1,2.5-0.1
			c6.1,0,8.8,2.2,10,4.7c1.7-1.2,3.5-2.3,5.3-3c2.5-1.1,4.9-1.6,7.2-1.6c3,0,5.6,0.7,7.6,2.2c2,1.4,3.4,3.4,4.3,5.9
			c0.8,2.4,1.1,5.2,0.7,8.3c-0.3,3-1.2,6.3-2.6,9.7c-3.6,8.5-8.1,14.8-13.4,18.8c-5.3,4-11,6.1-16.9,6.1c-2.5,0-4.7-0.6-6.4-1.9
			l-3.9,9.6C28,75.9,27.7,77,28,77.7c0.3,0.5,1.2,0.6,2,0.6h3.7l-4,8.1l-0.7,0.2c-0.7,0.2-1.3,0.3-2.1,0.5c-0.7,0.2-1.4,0.3-2.3,0.4
			C23.9,87.6,23.1,87.6,22.2,87.6z M35.6,57.5c0.3,0.2,0.8,0.3,1.5,0.3c1.2,0,2.4-0.2,3.5-0.7c1.1-0.5,2.3-1.3,3.5-2.5
			c1.2-1.2,2.5-2.9,3.8-4.9c1.3-2.1,2.8-4.7,4.4-7.7c1.1-2.2,1.9-4.4,2.6-6.4c0.6-1.9,1-3.6,1.1-5c0.1-1.2-0.1-2-0.5-2.6
			c-0.1-0.2-0.4-0.6-1.6-0.6c-1.1,0-2.3,0.3-3.6,1c-1.3,0.6-2.6,1.5-4,2.7c-0.1,0.5-0.3,1-0.5,1.4c-0.2,0.6-0.4,1.2-0.7,1.8
			L35.6,57.5z"/>
		<path class="st0" d="M58.9,18.2c2.7,0,4.9,0.6,6.7,1.9c1.7,1.2,3,2.9,3.7,5.1c0.8,2.2,1,4.7,0.7,7.6c-0.3,2.9-1.2,6-2.5,9.2
			c-3.5,8.2-7.8,14.3-12.9,18.1c-5.1,3.8-10.4,5.8-15.9,5.8c-3,0-5.4-1-7-3.1l-4.8,11.8c-0.7,1.6-0.8,2.9-0.3,3.9
			c0.5,1,1.7,1.5,3.4,1.5h1.2l-2.5,5.2c-0.6,0.2-1.3,0.3-2,0.5c-0.6,0.2-1.3,0.3-2.1,0.4C23.8,86,23,86,22.2,86
			c-4.6,0-7.4-1.3-8.5-3.8c-1.1-2.5-0.5-6.4,1.6-11.7c0.3-0.8,0.9-2.3,1.8-4.4c0.9-2.2,1.9-4.6,3-7.4c1.1-2.8,2.3-5.7,3.6-8.8
			c1.3-3.1,2.5-6,3.6-8.8c1.1-2.8,2.1-5.2,2.9-7.2c0.8-2,1.4-3.4,1.7-4.1c0.7-1.6,0.8-2.9,0.3-3.9c-0.5-1-1.7-1.5-3.5-1.5h-1.1
			l2.4-5.2c0.6-0.2,1.3-0.3,2-0.5c0.6-0.2,1.3-0.3,2.1-0.4c0.8-0.1,1.5-0.1,2.3-0.1c5.6,0,8.6,1.9,9.1,5.8c2.2-1.8,4.5-3.3,6.8-4.3
			C54.7,18.7,56.9,18.2,58.9,18.2 M37.1,59.4c1.4,0,2.8-0.3,4.1-0.8c1.3-0.6,2.6-1.5,4-2.8c1.3-1.3,2.7-3,4-5.2
			c1.4-2.1,2.8-4.7,4.4-7.9c1.1-2.3,2-4.5,2.7-6.6c0.7-2.1,1.1-3.9,1.1-5.4c0.1-1.5-0.2-2.7-0.8-3.6c-0.6-0.9-1.6-1.3-2.9-1.3
			c-1.4,0-2.8,0.4-4.3,1.1c-1.5,0.8-3.1,1.8-4.7,3.2c-0.2,0.6-0.3,1.2-0.5,1.8c-0.2,0.6-0.4,1.2-0.7,1.8L33.7,58
			C34.5,58.9,35.6,59.4,37.1,59.4 M58.9,15.1c-2.5,0-5.1,0.6-7.8,1.8c-1.4,0.6-2.8,1.4-4.2,2.2c-1.7-2.2-4.8-4-10.5-4
			c-0.9,0-1.8,0-2.7,0.1c-0.9,0.1-1.7,0.2-2.5,0.4c-0.7,0.2-1.4,0.3-2.1,0.5l-1.5,0.4l-0.6,1.4L24.8,23l-2.1,4.5h5h1.1
			c0.3,0,0.5,0,0.7,0c0,0.2-0.1,0.5-0.3,0.9c-0.3,0.8-0.9,2.2-1.7,4.3c-0.8,2-1.7,4.4-2.9,7.2c-1.1,2.8-2.3,5.7-3.6,8.7
			c-1.3,3-2.5,6-3.6,8.9c-1.1,2.8-2.1,5.3-3,7.4c-0.9,2.2-1.5,3.7-1.8,4.5c-2.5,6.1-3,10.8-1.6,14.1c1.6,3.8,5.4,5.7,11.4,5.7
			c0.9,0,1.8,0,2.7-0.1c0.9-0.1,1.7-0.2,2.5-0.4c0.7-0.2,1.4-0.3,2.1-0.5l1.4-0.4l0.6-1.3l2.5-5.2l2.2-4.6h-5.1H30
			c-0.2,0-0.4,0-0.5,0c0-0.2,0.1-0.5,0.3-0.9l0-0.1l0-0.1l3.2-7.9c1.6,0.8,3.5,1.2,5.6,1.2c6.2,0,12.2-2.2,17.8-6.4
			C62,58.5,66.6,52,70.4,43.2c1.5-3.6,2.4-7,2.8-10.1c0.4-3.3,0.1-6.4-0.8-9c-1-2.8-2.6-5-4.9-6.6C65.2,15.9,62.3,15.1,58.9,15.1
			L58.9,15.1z M47.6,31.9c1.1-0.9,2.2-1.6,3.3-2.2c1.1-0.5,2-0.8,2.9-0.8c0.2,0,0.3,0,0.4,0c0.1,0.2,0.2,0.6,0.2,1.6
			c-0.1,1.2-0.4,2.8-1,4.6c-0.6,1.9-1.5,4-2.5,6.2c-1.5,3-3,5.6-4.3,7.6c-1.2,1.9-2.4,3.5-3.6,4.6c-1,1-2,1.7-3,2.1
			c-0.7,0.3-1.4,0.5-2.1,0.6l8.6-21.3l0,0l0,0c0.2-0.7,0.5-1.3,0.7-1.8C47.3,32.6,47.5,32.3,47.6,31.9L47.6,31.9z"/>
	</g>
	<g>
		<path class="st3" d="M137.1,87.6c-5.2,0-8.6-1.6-9.9-4.7c-1.3-3-0.7-7.2,1.6-12.9c0.3-0.8,0.9-2.3,1.8-4.4c0.9-2.2,1.9-4.6,3-7.4
			c1.1-2.8,2.3-5.8,3.6-8.8c1.3-3.1,2.5-6,3.6-8.7c1.1-2.8,2.1-5.1,2.9-7.2c0.8-2,1.4-3.4,1.7-4.2c0.4-0.8,0.7-1.8,0.3-2.5
			c-0.3-0.6-1.5-0.6-2.1-0.6H140l3.8-8.1l0.7-0.2c0.7-0.2,1.3-0.3,2.1-0.5c0.7-0.2,1.4-0.3,2.3-0.4c0.8-0.1,1.7-0.1,2.5-0.1
			c6.1,0,8.8,2.2,10,4.7c1.7-1.2,3.5-2.3,5.3-3c2.5-1.1,4.9-1.6,7.2-1.6c3,0,5.6,0.7,7.6,2.2c2,1.4,3.4,3.4,4.3,5.9
			c0.8,2.4,1.1,5.2,0.7,8.3c-0.3,3-1.2,6.3-2.6,9.7c-3.6,8.5-8.1,14.8-13.4,18.8c-5.3,4-11,6.1-16.9,6.1c-2.5,0-4.7-0.6-6.4-1.9
			l-3.9,9.6c-0.4,0.8-0.7,1.9-0.4,2.6c0.3,0.5,1.2,0.6,2,0.6h3.7l-4,8.1l-0.7,0.2c-0.7,0.2-1.3,0.3-2.1,0.5
			c-0.7,0.2-1.4,0.3-2.3,0.4C138.7,87.6,137.9,87.6,137.1,87.6z M150.5,57.5c0.3,0.2,0.8,0.3,1.5,0.3c1.2,0,2.4-0.2,3.5-0.7
			c1.1-0.5,2.3-1.3,3.5-2.5c1.2-1.2,2.5-2.9,3.8-4.9c1.3-2.1,2.8-4.7,4.4-7.7c1.1-2.2,1.9-4.4,2.6-6.4c0.6-1.9,1-3.6,1.1-5
			c0.1-1.2-0.1-2-0.5-2.6c-0.1-0.2-0.4-0.6-1.6-0.6c-1.1,0-2.3,0.3-3.6,1c-1.3,0.6-2.6,1.5-4,2.7c-0.1,0.5-0.3,1-0.5,1.4
			c-0.2,0.6-0.4,1.2-0.7,1.8L150.5,57.5z"/>
		<path class="st0" d="M173.8,18.2c2.7,0,4.9,0.6,6.7,1.9c1.7,1.2,3,2.9,3.7,5.1c0.8,2.2,1,4.7,0.7,7.6c-0.3,2.9-1.2,6-2.5,9.2
			c-3.5,8.2-7.8,14.3-12.9,18.1c-5.1,3.8-10.4,5.8-15.9,5.8c-3,0-5.4-1-7-3.1l-4.8,11.8c-0.7,1.6-0.8,2.9-0.3,3.9
			c0.5,1,1.7,1.5,3.4,1.5h1.2l-2.5,5.2c-0.6,0.2-1.3,0.3-2,0.5c-0.6,0.2-1.3,0.3-2.1,0.4c-0.8,0.1-1.5,0.1-2.3,0.1
			c-4.6,0-7.4-1.3-8.5-3.8c-1.1-2.5-0.5-6.4,1.6-11.7c0.3-0.8,0.9-2.3,1.8-4.4c0.9-2.2,1.9-4.6,3-7.4c1.1-2.8,2.3-5.7,3.6-8.8
			c1.3-3.1,2.5-6,3.6-8.8c1.1-2.8,2.1-5.2,2.9-7.2c0.8-2,1.4-3.4,1.7-4.1c0.7-1.6,0.8-2.9,0.3-3.9c-0.5-1-1.7-1.5-3.5-1.5h-1.1
			l2.4-5.2c0.6-0.2,1.3-0.3,2-0.5c0.6-0.2,1.3-0.3,2.1-0.4c0.8-0.1,1.5-0.1,2.3-0.1c5.6,0,8.6,1.9,9.1,5.8c2.2-1.8,4.5-3.3,6.8-4.3
			C169.5,18.7,171.7,18.2,173.8,18.2 M151.9,59.4c1.4,0,2.8-0.3,4.1-0.8c1.3-0.6,2.6-1.5,4-2.8c1.3-1.3,2.7-3,4-5.2
			c1.4-2.1,2.8-4.7,4.4-7.9c1.1-2.3,2-4.5,2.7-6.6c0.7-2.1,1.1-3.9,1.1-5.4c0.1-1.5-0.2-2.7-0.8-3.6c-0.6-0.9-1.6-1.3-2.9-1.3
			c-1.4,0-2.8,0.4-4.3,1.1c-1.5,0.8-3.1,1.8-4.7,3.2c-0.2,0.6-0.3,1.2-0.5,1.8c-0.2,0.6-0.4,1.2-0.7,1.8L148.6,58
			C149.3,58.9,150.4,59.4,151.9,59.4 M173.8,15.1c-2.5,0-5.1,0.6-7.8,1.8c-1.4,0.6-2.8,1.4-4.2,2.2c-1.7-2.2-4.8-4-10.5-4
			c-0.9,0-1.8,0-2.7,0.1c-0.9,0.1-1.7,0.2-2.5,0.4c-0.7,0.2-1.4,0.3-2.1,0.5l-1.5,0.4l-0.6,1.4l-2.4,5.2l-2.1,4.5h5h1.1
			c0.3,0,0.5,0,0.7,0c0,0.2-0.1,0.5-0.3,0.9c-0.4,0.8-0.9,2.2-1.7,4.3c-0.8,2-1.7,4.4-2.9,7.2c-1.1,2.8-2.3,5.7-3.6,8.7
			c-1.3,3-2.5,6-3.6,8.9c-1.1,2.8-2.1,5.3-3,7.4c-0.9,2.2-1.5,3.7-1.8,4.5c-2.5,6.1-3,10.8-1.6,14.1c1.6,3.8,5.4,5.7,11.4,5.7
			c0.9,0,1.8,0,2.7-0.1c0.9-0.1,1.7-0.2,2.5-0.4c0.7-0.2,1.4-0.3,2.1-0.5l1.4-0.4l0.6-1.3l2.5-5.2l2.2-4.6h-5.1h-1.2
			c-0.2,0-0.4,0-0.5,0c0-0.2,0.1-0.5,0.3-0.9l0-0.1l0-0.1l3.2-7.9c1.6,0.8,3.5,1.2,5.6,1.2c6.2,0,12.2-2.2,17.8-6.4
			c5.5-4.2,10.2-10.7,13.9-19.4c1.5-3.6,2.4-7,2.8-10.1c0.4-3.3,0.1-6.4-0.8-9c-1-2.8-2.6-5-4.9-6.6C180,15.9,177.2,15.1,173.8,15.1
			L173.8,15.1z M162.4,31.9c1.1-0.9,2.2-1.6,3.3-2.2c1.1-0.5,2-0.8,2.9-0.8c0.2,0,0.3,0,0.4,0c0.1,0.2,0.2,0.6,0.2,1.6
			c-0.1,1.2-0.4,2.8-1,4.6c-0.6,1.9-1.5,4-2.5,6.2c-1.5,3-3,5.6-4.3,7.6c-1.2,1.9-2.4,3.5-3.6,4.6c-1,1-2,1.7-3,2.1
			c-0.7,0.3-1.4,0.5-2.1,0.6l8.6-21.3l0,0l0,0c0.2-0.7,0.5-1.3,0.7-1.8C162.2,32.6,162.3,32.3,162.4,31.9L162.4,31.9z"/>
	</g>
</g>
</svg>
