<?xml version="1.0" encoding="utf-8"?>
<!-- Generator: Adobe Illustrator 20.1.0, SVG Export Plug-In . SVG Version: 6.00 Build 0)  -->
<svg version="1.1" id="Capa_1" xmlns="http://www.w3.org/2000/svg" xmlns:xlink="http://www.w3.org/1999/xlink" x="0px" y="0px"
	 viewBox="0 0 202.5 100" style="enable-background:new 0 0 202.5 100;" xml:space="preserve">
<style type="text/css">
	.st0{fill:#FFFFFF;}
	.st1{fill:#F03A2F;}
	.st2{fill:#333B48;}
</style>
<g>
	<path class="st0" d="M194.1,21.6c-1.3-3.7-3.5-6.7-6.6-8.9c-3.1-2.2-6.9-3.4-11.3-3.4c-3.2,0-6.4,0.7-9.7,2.2
		c-0.5,0.2-1.1,0.5-1.6,0.8c-2.5-1.7-6.1-2.9-11.1-2.9c-1.1,0-2.1,0.1-3.2,0.2c-1.1,0.1-2.1,0.3-3.1,0.5c-0.8,0.2-1.5,0.3-2.1,0.5
		c-1.5,0.4-2.8,1.2-3.8,2.3c0,0,0,0,0,0c0,0,0,0,0,0c-2.4-1.9-6-3.5-11.2-3.5c-3.4,0-6.8,0.7-10.1,2.2c-0.5,0.2-1,0.4-1.4,0.7
		c-3.7-2.4-8.1-2.8-10.5-2.8c-3.3,0-6.6,0.7-9.8,2.1c-0.4,0.2-0.7,0.3-1,0.5c-0.4-0.4-0.9-0.7-1.4-1c-3.9-2.5-8.7-3-12-3
		c-5,0-10,1.1-14.3,3.2c-2.5-1.1-5.3-1.7-8.4-1.7c-3.2,0-6.4,0.7-9.7,2.2c-0.5,0.2-1.1,0.5-1.6,0.8c-2.5-1.7-6.1-2.9-11.1-2.9
		c-1.1,0-2.1,0.1-3.2,0.2c-1.1,0.1-2.1,0.3-3.1,0.5c-0.8,0.2-1.5,0.3-2.1,0.5c-2.3,0.6-4.3,2.2-5.3,4.3L23,20
		c-1.1,2.5-1,5.3,0.5,7.6c0.5,0.9,1.2,1.6,2,2.2c0,0.1-0.1,0.2-0.1,0.2c-0.8,2-1.7,4.4-2.8,7.1c-1.1,2.7-2.3,5.6-3.6,8.7
		c-1.3,3.1-2.5,6.1-3.6,8.9c-1.1,2.8-2.1,5.2-3,7.4c-0.9,2.2-1.5,3.7-1.8,4.5C7.5,74.1,7,79.7,9,84.4c1.4,3.2,5.2,8.6,15.7,8.6
		c1,0,2.1-0.1,3.1-0.2c1.1-0.1,2.1-0.3,3.1-0.5c0.8-0.2,1.5-0.3,2.1-0.5c2.3-0.6,4.2-2.1,5.2-4.2l2.4-4.9c0.6-1.1,0.9-2.4,0.9-3.7
		c0-2.6-1.2-4.8-3.1-6.3c0.8,0.1,1.7,0.2,2.6,0.2c7.3,0,14.2-2.5,20.7-7.4c0.8-0.6,1.6-1.3,2.4-2c0.1,0.3,0.2,0.7,0.4,1
		c1.7,3.8,5.9,8.4,15.7,8.4c1.7,0,3.2-0.1,4.6-0.3c0.5,0.1,1,0.1,1.6,0.1c0.7,0,1.5-0.1,2.2-0.3c1.3-0.3,2.6-1,3.5-2
		c3.5,2,7.5,2.4,10.2,2.4c1.7,0,3.2-0.1,4.6-0.3c0.5,0.1,1,0.1,1.6,0.1c0.7,0,1.5-0.1,2.2-0.3c1.5-0.4,2.8-1.1,3.8-2.2
		c2.1,1.3,4.9,2.4,8.6,2.6c-1.1,4.6-0.9,8.3,0.5,11.6c1.4,3.2,5.2,8.6,15.7,8.6c1,0,2.1-0.1,3.1-0.2c1.1-0.1,2.1-0.3,3.1-0.5
		c0.8-0.2,1.5-0.3,2.1-0.5c2.3-0.6,4.2-2.1,5.2-4.2l2.4-4.9c0.6-1.1,0.9-2.4,0.9-3.7c0-2.6-1.2-4.8-3.1-6.3c0.8,0.1,1.7,0.2,2.6,0.2
		c7.3,0,14.2-2.5,20.7-7.4c6.2-4.7,11.4-11.8,15.4-21.3c0,0,0-0.1,0-0.1c1.6-4,2.7-7.8,3.1-11.4C195.6,28.6,195.3,24.9,194.1,21.6z"
		/>
</g>
<g>
	<g>
		<path class="st1" d="M124.8,66.5c-4.5,0-7.7-1.6-9.5-4.7c-1.8-3.1-1.6-7.3,0.7-12.9l7.7-18.7c0.4-0.9,0.3-1.3,0.3-1.4
			c0-0.1-0.2-0.3-0.7-0.3c-0.1,0-0.3,0-0.4,0c-0.6,0-1.2,0.1-2,0.4c-0.9,0.3-1.8,0.8-2.6,1.5c-0.1,0.4-0.3,0.7-0.4,1.1
			c-0.2,0.4-0.3,0.9-0.5,1.4l0,0.1L108.6,54c-0.6,1.7-0.4,2.2-0.3,2.5c0.2,0.4,0.9,0.5,1.9,0.5h3.7l-3.8,8.3l-0.7,0.3
			c-0.4,0.1-0.8,0.2-1.2,0.3c-0.3,0-0.6,0.1-0.9,0.2c-1.3,0.3-2.9,0.4-4.8,0.4c-5.2,0-8.6-1.6-10-4.7c-0.5-1.2-0.8-2.6-0.7-4.2
			L88,65.5l-0.7,0.2c-0.4,0.1-0.8,0.2-1.2,0.2c-0.3,0-0.6,0.1-0.9,0.2c-1.3,0.3-2.9,0.4-4.8,0.4c-5.2,0-8.6-1.6-10-4.7
			c-1.3-2.9-0.8-7.1,1.5-12.9c0.5-1.3,1.1-2.9,1.9-4.8c0.8-1.9,1.6-3.9,2.5-5.9c0.8-2,1.6-3.9,2.3-5.7c0.7-1.8,1.3-3.3,1.8-4.3
			c0.1-0.3,0.2-0.7,0.3-1.1c0-0.1-0.1-0.3-0.2-0.5c-0.2-0.3-0.7-0.4-1.2-0.4c-0.9,0-3,0.4-6.4,3.5l-1.7,1.5l-4.3-10.9l0.9-0.7
			c4.2-3.3,10.3-5.3,16.1-5.3c3.5,0,6.6,0.7,8.6,2c1.2,0.8,2.2,1.7,3,3c0.2,0.3,0.4,0.5,0.5,0.8c1.5-1.1,3.2-2,4.9-2.7
			c2.4-1,4.9-1.6,7.3-1.6c5.4,0,8.1,2.1,9.4,4.5c1.6-1.2,3.2-2.1,5-2.9c2.5-1.1,5-1.6,7.5-1.6c4.5,0,7.7,1.6,9.5,4.6
			c1.8,3,1.5,7.2-0.7,12.8l-7.7,18.9c-0.3,0.8-0.4,1.3-0.2,1.4c0.3,0.2,0.7,0.4,1.2,0.4c0.2,0,0.5,0,0.8-0.1
			c1.1-0.2,2.4-0.8,3.8-1.9c1.4-1,2.6-2.5,3.5-4.4l1.3-2.6l4,6.5l-0.3,0.7c-0.9,2.1-2.1,4-3.6,5.8c-1.5,1.7-3.2,3.3-5,4.5
			c-1.8,1.3-3.8,2.3-5.9,3.1C129,66.1,126.9,66.5,124.8,66.5z M95.9,30.5c-0.1,0.4-0.3,0.7-0.4,1.1c-0.2,0.4-0.3,0.9-0.5,1.4l0,0.1
			c-0.5,1.3-1.2,3-2.1,5.1c-0.8,2-1.7,4-2.6,6.3c-0.8,2.1-1.6,4.1-2.3,5.9c-0.7,1.7-1.2,3-1.4,3.6c-0.5,1.2-0.7,2-0.4,2.5
			c0.2,0.4,1,0.5,2.1,0.5h3.7c0.1-2,0.9-5,2.3-8.4c0.5-1.1,1.1-2.6,1.9-4.6c0.8-2.1,1.7-4.1,2.5-6.2c1-2.4,2-4.9,3.1-7.5
			c0.3-0.7,0.3-1.2,0.2-1.3c-0.1-0.2-0.3-0.4-0.9-0.5c-0.1,0-0.2,0-0.3,0c-0.5,0-1.2,0.2-2,0.5C97.8,29.2,96.9,29.7,95.9,30.5z"/>
		<g>
			<path class="st0" d="M84.1,15.8c3.2,0,6,0.6,7.8,1.8c1.1,0.7,1.9,1.6,2.5,2.5c0.5,0.7,0.9,1.5,1.1,2.5c1.9-1.6,4-2.9,6.2-3.8
				c2.2-1,4.5-1.4,6.7-1.4c4.9,0,7.8,1.8,8.8,5.5c1.9-1.7,4-3,6.3-4c2.3-1,4.6-1.5,6.9-1.5c3.9,0,6.6,1.3,8.1,3.8
				c1.5,2.6,1.2,6.4-0.8,11.4l-7.7,18.8c-0.6,1.5-0.6,2.6,0.2,3.2c0.6,0.5,1.3,0.7,2.2,0.7c0.3,0,0.7,0,1.1-0.1
				c1.4-0.2,2.9-1,4.5-2.2c1.6-1.2,3-2.9,4-5l2,3.4c-0.8,1.9-1.9,3.7-3.3,5.3c-1.4,1.6-3,3.1-4.7,4.3c-1.7,1.2-3.6,2.2-5.5,2.9
				c-2,0.7-3.9,1.1-5.8,1.1c-3.9,0-6.6-1.3-8.2-3.9c-1.5-2.6-1.2-6.4,0.8-11.5l7.7-18.7c0.5-1.2,0.5-2.1,0.2-2.8
				c-0.4-0.6-1-1-1.9-1.1c-0.2,0-0.4,0-0.6,0c-0.7,0-1.6,0.2-2.5,0.5c-1.2,0.4-2.4,1.1-3.5,2c-0.2,0.5-0.3,1-0.5,1.4
				c-0.2,0.5-0.4,1-0.5,1.6l-8.6,21c-0.6,1.7-0.7,3.1-0.2,4c0.5,1,1.6,1.6,3.4,1.6h1.2l-2.4,5.1c-0.6,0.2-1.3,0.2-2,0.4
				c-1.2,0.2-2.7,0.4-4.4,0.4c-4.6,0-7.4-1.3-8.6-3.8c-1.2-2.5-0.6-6.4,1.6-11.7c0.5-1.1,1.1-2.7,1.9-4.8c0.8-2.1,1.6-4.2,2.5-6.2
				c1-2.4,2-4.9,3.1-7.6c0.5-1.2,0.5-2.1,0.1-2.8c-0.4-0.7-1.1-1.1-2-1.2c-0.2,0-0.4,0-0.5,0c-0.8,0-1.6,0.2-2.6,0.6
				c-1.2,0.5-2.4,1.2-3.6,2.3c-0.2,0.5-0.3,1-0.5,1.4c-0.2,0.5-0.4,1-0.5,1.6c-0.5,1.3-1.2,3-2,5c-0.9,2.1-1.7,4.2-2.6,6.3
				c-0.8,2.1-1.6,4.1-2.3,5.8c-0.7,1.8-1.2,3-1.4,3.6c-0.7,1.7-0.8,3.1-0.4,4c0.5,1,1.6,1.6,3.5,1.6h1.2l-2.5,5.1
				c-0.6,0.2-1.3,0.2-2,0.4c-1.2,0.2-2.7,0.4-4.4,0.4c-4.6,0-7.4-1.2-8.5-3.7c-1.1-2.5-0.6-6.4,1.6-11.6c0.5-1.3,1.1-2.9,1.9-4.8
				c0.8-1.9,1.6-3.9,2.5-5.9c0.8-2,1.6-4,2.3-5.8c0.7-1.8,1.3-3.2,1.8-4.3c0.2-0.6,0.4-1.1,0.5-1.5c0.1-1.2-0.9-2.7-3-2.7
				c-1.7,0-4.2,1-7.4,3.9l-3-7.7C73.4,17.3,79.2,15.8,84.1,15.8 M84.1,12.6L84.1,12.6c-6.2,0-12.6,2.1-17.1,5.6l-1.9,1.4l0.9,2.2
				l3,7.7l1.7,4.3l3.4-3c2.5-2.2,4.1-2.8,4.8-3c-0.5,1.1-1,2.4-1.7,4.1c-0.7,1.8-1.5,3.7-2.3,5.7c-0.8,2-1.7,4-2.5,5.9
				c-0.8,1.9-1.4,3.5-1.9,4.9c-2.5,6.2-3,10.8-1.5,14.1c1.7,3.7,5.5,5.6,11.4,5.6c2,0,3.6-0.1,5.1-0.4l0,0l0,0
				c0.2-0.1,0.5-0.1,0.8-0.1c0.4-0.1,0.9-0.1,1.3-0.3l1.4-0.4l0.6-1.3l1.5-3c1.7,3.7,5.6,5.5,11.4,5.5c2,0,3.6-0.1,5.1-0.4l0,0l0,0
				c0.2-0.1,0.5-0.1,0.8-0.1c0.4-0.1,0.9-0.1,1.3-0.3l1.5-0.4l0.6-1.4l1.6-3.5c0.1,0.2,0.2,0.4,0.3,0.6c1.5,2.5,4.5,5.5,10.9,5.5
				c2.3,0,4.6-0.4,6.9-1.3c2.2-0.8,4.3-1.9,6.2-3.3c1.9-1.3,3.7-3,5.3-4.8c1.6-1.9,2.9-4,3.8-6.2l0.6-1.5l-0.8-1.4l-2-3.4l-3-5
				l-2.5,5.3c-0.8,1.7-1.8,3-3,3.9c-1.4,1-2.3,1.4-3,1.6l7.5-18.3c2.4-6.1,2.6-10.7,0.6-14.2c-1.4-2.5-4.5-5.4-10.8-5.4
				c-2.7,0-5.5,0.6-8.2,1.8c-1.4,0.6-2.7,1.3-3.9,2.1c-2.7-3.3-7.1-3.9-9.8-3.9c-2.7,0-5.3,0.6-8,1.7c-1.3,0.6-2.6,1.2-3.8,2
				c-0.8-1.2-1.9-2.1-3.1-2.9C91.3,13.4,88,12.6,84.1,12.6L84.1,12.6z M97.2,31.5c0.7-0.6,1.4-1,2.1-1.2c0.3-0.1,0.6-0.2,0.8-0.3
				c-1,2.4-2,4.8-2.9,7.1c-0.9,2.1-1.7,4.2-2.5,6.3c-0.8,2-1.4,3.7-1.9,4.8c-1.2,2.9-2,5.8-2.3,7.8h-1h-1.2c-0.2,0-0.4-0.1-0.6-0.1
				c0-0.3,0.1-0.7,0.4-1.2l0-0.1l0-0.1c0.1-0.3,0.5-1.4,1.4-3.5c0.8-1.9,1.6-4,2.4-5.9c0.9-2.2,1.7-4.3,2.6-6.2
				c0.9-2.1,1.6-3.8,2.1-5.2l0-0.1l0-0.1c0.1-0.4,0.3-0.9,0.4-1.2C97,32,97.1,31.8,97.2,31.5L97.2,31.5z M119.6,31.3
				c0.6-0.4,1.2-0.8,1.8-1c0.2-0.1,0.5-0.1,0.6-0.2l-7.5,18.3c-1.2,2.8-1.8,5.6-2,7.6h-1.1h-1.2c-0.2,0-0.4-0.1-0.5-0.1
				c0-0.3,0.1-0.7,0.3-1.3l8.6-21l0.1-0.2l0-0.2c0.1-0.5,0.3-0.9,0.4-1.2C119.4,31.8,119.5,31.5,119.6,31.3L119.6,31.3z M132.8,53.1
				C132.8,53.1,132.8,53.1,132.8,53.1L132.8,53.1L132.8,53.1z"/>
		</g>
	</g>
	<g>
		<g>
			<path class="st2" d="M24.7,86.6c-5.2,0-8.6-1.6-9.9-4.7c-1.3-3-0.7-7.2,1.6-12.9c0.3-0.8,0.9-2.3,1.8-4.4c0.9-2.2,1.9-4.6,3-7.4
				c1.1-2.8,2.3-5.8,3.6-8.8c1.3-3.1,2.5-6,3.6-8.7c1.1-2.8,2.1-5.1,2.9-7.2c0.8-2,1.4-3.5,1.7-4.2c0.4-0.8,0.7-1.8,0.3-2.5
				c-0.3-0.6-1.5-0.6-2.1-0.6h-3.6l3.8-8.1l0.7-0.2c0.7-0.2,1.3-0.3,2.1-0.5c0.7-0.2,1.5-0.3,2.3-0.4c0.8-0.1,1.7-0.1,2.5-0.1
				c6.1,0,8.8,2.2,10,4.7c1.7-1.2,3.5-2.3,5.3-3c2.5-1.1,4.9-1.6,7.2-1.6c3,0,5.6,0.7,7.6,2.2c2,1.4,3.4,3.4,4.3,5.9
				c0.8,2.4,1.1,5.2,0.7,8.3c-0.3,3-1.2,6.3-2.6,9.7c-3.6,8.5-8.1,14.8-13.4,18.8c-5.3,4-11,6.1-16.9,6.1c-2.5,0-4.7-0.6-6.4-1.9
				l-3.9,9.6c-0.4,0.8-0.7,1.9-0.4,2.6c0.3,0.5,1.2,0.6,2,0.6h3.7l-4,8.1l-0.7,0.2c-0.7,0.2-1.3,0.3-2.1,0.5
				c-0.7,0.2-1.4,0.3-2.3,0.4C26.4,86.6,25.6,86.6,24.7,86.6z M38.1,56.5c0.3,0.2,0.8,0.3,1.5,0.3c1.2,0,2.4-0.2,3.5-0.7
				c1.1-0.5,2.3-1.3,3.5-2.5c1.2-1.2,2.5-2.9,3.8-4.9c1.3-2.1,2.8-4.7,4.4-7.7c1.1-2.2,1.9-4.4,2.6-6.4c0.6-1.9,1-3.6,1.1-5
				c0.1-1.2-0.1-2-0.5-2.6c-0.1-0.2-0.4-0.6-1.6-0.6c-1.1,0-2.3,0.3-3.6,1c-1.3,0.6-2.6,1.5-4,2.7c-0.1,0.5-0.3,1-0.5,1.4
				c-0.2,0.6-0.4,1.2-0.7,1.8L38.1,56.5z"/>
		</g>
		<g>
			<path class="st0" d="M61.4,17.2c2.7,0,4.9,0.6,6.7,1.9c1.7,1.2,3,2.9,3.7,5.1c0.8,2.2,1,4.7,0.7,7.6c-0.3,2.9-1.2,6-2.5,9.2
				c-3.5,8.2-7.8,14.3-12.9,18.1C52,63,46.7,64.9,41.2,64.9c-3,0-5.4-1-7-3.1l-4.8,11.8c-0.7,1.6-0.8,2.9-0.3,3.9
				c0.5,1,1.7,1.5,3.4,1.5h1.2l-2.5,5.2c-0.6,0.2-1.3,0.3-2,0.5c-0.6,0.2-1.3,0.3-2.1,0.4C26.3,85,25.5,85,24.7,85
				c-4.6,0-7.4-1.3-8.5-3.8c-1.1-2.5-0.5-6.4,1.6-11.7c0.3-0.8,0.9-2.3,1.8-4.4c0.9-2.2,1.9-4.6,3-7.4c1.1-2.8,2.3-5.7,3.6-8.8
				c1.3-3.1,2.5-6,3.6-8.8c1.1-2.8,2.1-5.2,2.9-7.2c0.8-2,1.4-3.4,1.7-4.1c0.7-1.6,0.8-2.9,0.3-3.9c-0.5-1-1.7-1.5-3.5-1.5h-1.1
				l2.4-5.2c0.6-0.2,1.3-0.3,2-0.5c0.6-0.2,1.3-0.3,2.1-0.4c0.8-0.1,1.5-0.1,2.3-0.1c5.6,0,8.6,1.9,9.1,5.8c2.2-1.8,4.5-3.3,6.8-4.3
				C57.2,17.7,59.4,17.2,61.4,17.2 M39.6,58.4c1.4,0,2.8-0.3,4.1-0.8c1.3-0.6,2.6-1.5,4-2.8c1.3-1.3,2.7-3,4-5.2
				c1.4-2.1,2.8-4.7,4.4-7.9c1.1-2.3,2-4.5,2.7-6.6c0.7-2.1,1.1-3.9,1.1-5.4c0.1-1.5-0.2-2.7-0.8-3.6c-0.6-0.9-1.6-1.3-2.9-1.3
				c-1.4,0-2.8,0.4-4.3,1.1c-1.5,0.8-3.1,1.8-4.7,3.2c-0.2,0.6-0.3,1.2-0.5,1.8c-0.2,0.6-0.4,1.2-0.7,1.8L36.2,57
				C37,57.9,38.1,58.4,39.6,58.4 M61.4,14.1c-2.5,0-5.1,0.6-7.8,1.8c-1.4,0.6-2.8,1.4-4.2,2.2c-1.7-2.2-4.8-4-10.5-4
				c-0.9,0-1.8,0-2.7,0.1c-0.9,0.1-1.7,0.2-2.5,0.4c-0.7,0.2-1.4,0.3-2.1,0.5l-1.5,0.4l-0.6,1.4L27.3,22l-2.1,4.5h5h1.1
				c0.3,0,0.5,0,0.7,0c0,0.2-0.1,0.5-0.3,0.9c-0.3,0.8-0.9,2.2-1.7,4.3c-0.8,2-1.7,4.4-2.9,7.2c-1.1,2.8-2.3,5.7-3.6,8.7
				c-1.3,3-2.5,6-3.6,8.9c-1.1,2.8-2.1,5.3-3,7.4c-0.9,2.2-1.5,3.7-1.8,4.5c-2.5,6.1-3,10.8-1.6,14.1c1.6,3.8,5.4,5.7,11.4,5.7
				c0.9,0,1.8,0,2.7-0.1c0.9-0.1,1.7-0.2,2.5-0.4c0.7-0.2,1.4-0.3,2.1-0.5l1.4-0.4l0.6-1.3l2.5-5.2l2.2-4.6h-5.1h-1.2
				c-0.2,0-0.4,0-0.5,0c0-0.2,0.1-0.5,0.3-0.9l0-0.1l0-0.1l3.2-7.9c1.6,0.8,3.5,1.2,5.6,1.2c6.2,0,12.2-2.2,17.8-6.4
				c5.5-4.2,10.2-10.7,13.9-19.4c1.5-3.6,2.4-7,2.8-10.1c0.4-3.3,0.1-6.4-0.8-9c-1-2.8-2.6-5-4.9-6.6C67.7,14.9,64.8,14.1,61.4,14.1
				L61.4,14.1z M50.1,30.9c1.1-0.9,2.2-1.6,3.3-2.2c1.1-0.5,2-0.8,2.9-0.8c0.2,0,0.3,0,0.4,0c0.1,0.2,0.2,0.6,0.2,1.6
				c-0.1,1.2-0.4,2.8-1,4.6c-0.6,1.9-1.5,4-2.5,6.2c-1.5,3-3,5.6-4.3,7.6c-1.2,1.9-2.4,3.5-3.6,4.6c-1,1-2,1.7-3,2.1
				c-0.7,0.3-1.4,0.5-2.1,0.6L49,33.9l0,0l0,0c0.2-0.7,0.5-1.3,0.7-1.8C49.8,31.6,50,31.3,50.1,30.9L50.1,30.9z"/>
		</g>
	</g>
	<g>
		<g>
			<path class="st2" d="M139.6,86.6c-5.2,0-8.6-1.6-9.9-4.7c-1.3-3-0.7-7.2,1.6-12.9c0.3-0.8,0.9-2.3,1.8-4.4c0.9-2.2,1.9-4.6,3-7.4
				c1.1-2.8,2.3-5.8,3.6-8.8c1.3-3.1,2.5-6,3.6-8.7c1.1-2.8,2.1-5.1,2.9-7.2c0.8-2,1.4-3.4,1.7-4.2c0.4-0.8,0.7-1.8,0.3-2.5
				c-0.3-0.6-1.5-0.6-2.1-0.6h-3.6l3.8-8.1l0.7-0.2c0.7-0.2,1.3-0.3,2.1-0.5c0.7-0.2,1.4-0.3,2.3-0.4c0.8-0.1,1.7-0.1,2.5-0.1
				c6.1,0,8.8,2.2,10,4.7c1.7-1.2,3.5-2.3,5.3-3c2.5-1.1,4.9-1.6,7.2-1.6c3,0,5.6,0.7,7.6,2.2c2,1.4,3.4,3.4,4.3,5.9
				c0.8,2.4,1.1,5.2,0.7,8.3c-0.3,3-1.2,6.3-2.6,9.7c-3.6,8.5-8.1,14.8-13.4,18.8c-5.3,4-11,6.1-16.9,6.1c-2.5,0-4.7-0.6-6.4-1.9
				l-3.9,9.6c-0.4,0.8-0.7,1.9-0.4,2.6c0.3,0.5,1.2,0.6,2,0.6h3.7l-4,8.1l-0.7,0.2c-0.7,0.2-1.3,0.3-2.1,0.5
				c-0.7,0.2-1.4,0.3-2.3,0.4C141.2,86.6,140.4,86.6,139.6,86.6z M153,56.5c0.3,0.2,0.8,0.3,1.5,0.3c1.2,0,2.4-0.2,3.5-0.7
				c1.1-0.5,2.3-1.3,3.5-2.5c1.2-1.2,2.5-2.9,3.8-4.9c1.3-2.1,2.8-4.7,4.4-7.7c1.1-2.2,1.9-4.4,2.6-6.4c0.6-1.9,1-3.6,1.1-5
				c0.1-1.2-0.1-2-0.5-2.6c-0.1-0.2-0.4-0.6-1.6-0.6c-1.1,0-2.3,0.3-3.6,1c-1.3,0.6-2.6,1.5-4,2.7c-0.1,0.5-0.3,1-0.5,1.4
				c-0.2,0.6-0.4,1.2-0.7,1.8L153,56.5z"/>
		</g>
		<g>
			<path class="st0" d="M176.3,17.2c2.7,0,4.9,0.6,6.7,1.9c1.7,1.2,3,2.9,3.7,5.1c0.8,2.2,1,4.7,0.7,7.6c-0.3,2.9-1.2,6-2.5,9.2
				c-3.5,8.2-7.8,14.3-12.9,18.1c-5.1,3.8-10.4,5.8-15.9,5.8c-3,0-5.4-1-7-3.1l-4.8,11.8c-0.7,1.6-0.8,2.9-0.3,3.9
				c0.5,1,1.7,1.5,3.4,1.5h1.2l-2.5,5.2c-0.6,0.2-1.3,0.3-2,0.5c-0.6,0.2-1.3,0.3-2.1,0.4c-0.8,0.1-1.5,0.1-2.3,0.1
				c-4.6,0-7.4-1.3-8.5-3.8c-1.1-2.5-0.5-6.4,1.6-11.7c0.3-0.8,0.9-2.3,1.8-4.4c0.9-2.2,1.9-4.6,3-7.4c1.1-2.8,2.3-5.7,3.6-8.8
				c1.3-3.1,2.5-6,3.6-8.8c1.1-2.8,2.1-5.2,2.9-7.2c0.8-2,1.4-3.4,1.7-4.1c0.7-1.6,0.8-2.9,0.3-3.9c-0.5-1-1.7-1.5-3.5-1.5H145
				l2.4-5.2c0.6-0.2,1.3-0.3,2-0.5c0.6-0.2,1.3-0.3,2.1-0.4c0.8-0.1,1.5-0.1,2.3-0.1c5.6,0,8.6,1.9,9.1,5.8c2.2-1.8,4.5-3.3,6.8-4.3
				C172,17.7,174.2,17.2,176.3,17.2 M154.4,58.4c1.4,0,2.8-0.3,4.1-0.8c1.3-0.6,2.6-1.5,4-2.8c1.3-1.3,2.7-3,4-5.2
				c1.4-2.1,2.8-4.7,4.4-7.9c1.1-2.3,2-4.5,2.7-6.6c0.7-2.1,1.1-3.9,1.1-5.4c0.1-1.5-0.2-2.7-0.8-3.6c-0.6-0.9-1.6-1.3-2.9-1.3
				c-1.4,0-2.8,0.4-4.3,1.1c-1.5,0.8-3.1,1.8-4.7,3.2c-0.2,0.6-0.3,1.2-0.5,1.8c-0.2,0.6-0.4,1.2-0.7,1.8L151.1,57
				C151.8,57.9,152.9,58.4,154.4,58.4 M176.3,14.1c-2.5,0-5.1,0.6-7.8,1.8c-1.4,0.6-2.8,1.4-4.2,2.2c-1.7-2.2-4.8-4-10.5-4
				c-0.9,0-1.8,0-2.7,0.1c-0.9,0.1-1.7,0.2-2.5,0.4c-0.7,0.2-1.4,0.3-2.1,0.5l-1.5,0.4l-0.6,1.4l-2.4,5.2l-2.1,4.5h5h1.1
				c0.3,0,0.5,0,0.7,0c0,0.2-0.1,0.5-0.3,0.9c-0.3,0.8-0.9,2.2-1.7,4.3c-0.8,2-1.7,4.4-2.9,7.2c-1.1,2.8-2.3,5.7-3.6,8.7
				c-1.3,3-2.5,6-3.6,8.9c-1.1,2.8-2.1,5.3-3,7.4c-0.9,2.2-1.5,3.7-1.8,4.5c-2.5,6.1-3,10.8-1.6,14.1c1.6,3.8,5.4,5.7,11.4,5.7
				c0.9,0,1.8,0,2.7-0.1c0.9-0.1,1.7-0.2,2.5-0.4c0.7-0.2,1.4-0.3,2.1-0.5l1.4-0.4l0.6-1.3l2.5-5.2l2.2-4.6h-5.1h-1.2
				c-0.2,0-0.4,0-0.5,0c0-0.2,0.1-0.5,0.3-0.9l0-0.1l0-0.1l3.2-7.9c1.6,0.8,3.5,1.2,5.6,1.2c6.2,0,12.2-2.2,17.8-6.4
				c5.5-4.2,10.2-10.7,13.9-19.4c1.5-3.6,2.4-7,2.8-10.1c0.4-3.3,0.1-6.4-0.8-9c-1-2.8-2.6-5-4.9-6.6
				C182.5,14.9,179.7,14.1,176.3,14.1L176.3,14.1z M164.9,30.9c1.1-0.9,2.2-1.6,3.3-2.2c1.1-0.5,2-0.8,2.9-0.8c0.2,0,0.3,0,0.4,0
				c0.1,0.2,0.2,0.6,0.2,1.6c-0.1,1.2-0.4,2.8-1,4.6c-0.6,1.9-1.5,4-2.5,6.2c-1.5,3-3,5.6-4.3,7.6c-1.2,1.9-2.4,3.5-3.6,4.6
				c-1,1-2,1.7-3,2.1c-0.7,0.3-1.4,0.5-2.1,0.6l8.6-21.3l0,0l0,0c0.2-0.7,0.5-1.3,0.7-1.8C164.7,31.6,164.8,31.3,164.9,30.9
				L164.9,30.9z"/>
		</g>
	</g>
</g>
</svg>
