<?xml version="1.0" encoding="utf-8"?>
<!-- Generator: Adobe Illustrator 20.1.0, SVG Export Plug-In . SVG Version: 6.00 Build 0)  -->
<svg version="1.1" id="Capa_1" xmlns="http://www.w3.org/2000/svg" xmlns:xlink="http://www.w3.org/1999/xlink" x="0px" y="0px"
	 viewBox="0 0 254 254" style="enable-background:new 0 0 254 254;" xml:space="preserve">
<style type="text/css">
	.st0{clip-path:url(#SVGID_2_);fill:#323A47;}
</style>
<g>
	<g>
		<defs>
			<rect id="SVGID_1_" x="30.8" y="47.4" width="185.8" height="156.5"/>
		</defs>
		<clipPath id="SVGID_2_">
			<use xlink:href="#SVGID_1_"  style="overflow:visible;"/>
		</clipPath>
		<path class="st0" d="M147.8,52c0-2.6-2.1-4.6-4.6-4.6h-49c-2.6,0-4.6,2.1-4.6,4.6v29.4c0,2.6,2.1,4.6,4.6,4.6h44.4v13.1
			l-44.4,44.4l-11.4-11.4c-1-1-2.3-1.5-3.7-1.3c-1.4,0.1-2.6,0.8-3.4,2l-44.1,63.4c-1,1.4-1.1,3.3-0.3,4.8c0.8,1.5,2.4,2.5,4.1,2.5
			h176.4c0,0,0,0,0,0c2.6,0,4.6-2.1,4.6-4.6c0-1.1-0.4-2.1-1-2.9l-67.6-96.3V52z M98.8,76.8V56.6h39.8v20.2H98.8z M44.2,194.1
			l35.9-51.6l10.8,10.8c0.9,0.9,2,1.4,3.3,1.4c1.2,0,2.4-0.5,3.3-1.4l45.1-45.1l60.3,86H44.2z M44.2,194.1"/>
	</g>
</g>
</svg>
