<?xml version="1.0" encoding="utf-8"?>
<!-- Generator: Adobe Illustrator 20.1.0, SVG Export Plug-In . SVG Version: 6.00 Build 0)  -->
<svg version="1.1" id="Capa_1" xmlns="http://www.w3.org/2000/svg" xmlns:xlink="http://www.w3.org/1999/xlink" x="0px" y="0px"
	 viewBox="0 0 420.9 442.3" style="enable-background:new 0 0 420.9 442.3;" xml:space="preserve">
<style type="text/css">
	.st0{fill:#FFFFFF;}
</style>
<g>
	<path class="st0" d="M201.7,301.5h-54.6c-3.8,0-6.8,3.1-6.8,6.8v75.1c0,3.8,3.1,6.8,6.8,6.8h54.6c3.8,0,6.8-3.1,6.8-6.8v-75.1
		C208.5,304.6,205.5,301.5,201.7,301.5L201.7,301.5z M194.9,376.6h-41v-61.4h41V376.6z M194.9,376.6"/>
	<path class="st0" d="M119.8,301.5H65.2c-3.8,0-6.8,3.1-6.8,6.8v75.1c0,3.8,3.1,6.8,6.8,6.8h54.6c3.8,0,6.8-3.1,6.8-6.8v-75.1
		C126.6,304.6,123.5,301.5,119.8,301.5L119.8,301.5z M112.9,376.6H72v-61.4h41V376.6z M112.9,376.6"/>
	<path class="st0" d="M283.6,301.5H229c-3.8,0-6.8,3.1-6.8,6.8v75.1c0,3.8,3.1,6.8,6.8,6.8h54.6c3.8,0,6.8-3.1,6.8-6.8v-75.1
		C290.4,304.6,287.4,301.5,283.6,301.5L283.6,301.5z M276.8,376.6h-41v-61.4h41V376.6z M276.8,376.6"/>
	<path class="st0" d="M365.5,301.5h-54.6c-3.8,0-6.8,3.1-6.8,6.8v75.1c0,3.8,3.1,6.8,6.8,6.8h54.6c3.8,0,6.8-3.1,6.8-6.8v-75.1
		C372.4,304.6,369.3,301.5,365.5,301.5L365.5,301.5z M358.7,376.6h-41v-61.4h41V376.6z M358.7,376.6"/>
	<path class="st0" d="M399.7,267.4v-68.3c0-3.8-3.1-6.8-6.8-6.8h-48C341.4,126.2,288.3,73,222.2,69.6V55.7H270
		c3.8,0,6.8-3.1,6.8-6.8V21.6c0-3.8-3.1-6.8-6.8-6.8h-61.4v54.8C142.4,73,89.3,126.2,85.8,192.3h-48c-3.8,0-6.8,3.1-6.8,6.8v68.3
		c-3.8,0-6.8,3.1-6.8,6.8v143.4c0,3.8,3.1,6.8,6.8,6.8h368.6c3.8,0,6.8-3.1,6.8-6.8V274.2C406.5,270.4,403.4,267.4,399.7,267.4
		L399.7,267.4z M222.2,28.4h41v13.7h-41V28.4z M215.3,83c61.7,0,112.3,48.4,115.8,109.2H99.5C103.1,131.4,153.6,83,215.3,83
		L215.3,83z M44.7,205.9H386v61.4H44.7V205.9z M392.8,410.7h-355V281h355L392.8,410.7L392.8,410.7z M392.8,410.7"/>
	<path class="st0" d="M65.2,219.6c-3.8,0-6.8,3.1-6.8,6.8v20.5c0,3.8,3.1,6.8,6.8,6.8c3.8,0,6.8-3.1,6.8-6.8v-20.5
		C72,222.6,68.9,219.6,65.2,219.6L65.2,219.6z M65.2,219.6"/>
	<path class="st0" d="M92.5,219.6c-3.8,0-6.8,3.1-6.8,6.8v20.5c0,3.8,3.1,6.8,6.8,6.8c3.8,0,6.8-3.1,6.8-6.8v-20.5
		C99.3,222.6,96.2,219.6,92.5,219.6L92.5,219.6z M92.5,219.6"/>
	<path class="st0" d="M119.8,219.6c-3.8,0-6.8,3.1-6.8,6.8v20.5c0,3.8,3.1,6.8,6.8,6.8c3.8,0,6.8-3.1,6.8-6.8v-20.5
		C126.6,222.6,123.5,219.6,119.8,219.6L119.8,219.6z M119.8,219.6"/>
	<path class="st0" d="M147.1,219.6c-3.8,0-6.8,3.1-6.8,6.8v20.5c0,3.8,3.1,6.8,6.8,6.8c3.8,0,6.8-3.1,6.8-6.8v-20.5
		C153.9,222.6,150.8,219.6,147.1,219.6L147.1,219.6z M147.1,219.6"/>
	<path class="st0" d="M174.4,219.6c-3.8,0-6.8,3.1-6.8,6.8v20.5c0,3.8,3.1,6.8,6.8,6.8c3.8,0,6.8-3.1,6.8-6.8v-20.5
		C181.2,222.6,178.2,219.6,174.4,219.6L174.4,219.6z M174.4,219.6"/>
	<path class="st0" d="M201.7,219.6c-3.8,0-6.8,3.1-6.8,6.8v20.5c0,3.8,3.1,6.8,6.8,6.8c3.8,0,6.8-3.1,6.8-6.8v-20.5
		C208.5,222.6,205.5,219.6,201.7,219.6L201.7,219.6z M201.7,219.6"/>
	<path class="st0" d="M229,219.6c-3.8,0-6.8,3.1-6.8,6.8v20.5c0,3.8,3.1,6.8,6.8,6.8c3.8,0,6.8-3.1,6.8-6.8v-20.5
		C235.8,222.6,232.8,219.6,229,219.6L229,219.6z M229,219.6"/>
	<path class="st0" d="M256.3,219.6c-3.8,0-6.8,3.1-6.8,6.8v20.5c0,3.8,3.1,6.8,6.8,6.8c3.8,0,6.8-3.1,6.8-6.8v-20.5
		C263.1,222.6,260.1,219.6,256.3,219.6L256.3,219.6z M256.3,219.6"/>
	<path class="st0" d="M283.6,219.6c-3.8,0-6.8,3.1-6.8,6.8v20.5c0,3.8,3.1,6.8,6.8,6.8c3.8,0,6.8-3.1,6.8-6.8v-20.5
		C290.4,222.6,287.4,219.6,283.6,219.6L283.6,219.6z M283.6,219.6"/>
	<path class="st0" d="M310.9,219.6c-3.8,0-6.8,3.1-6.8,6.8v20.5c0,3.8,3.1,6.8,6.8,6.8c3.8,0,6.8-3.1,6.8-6.8v-20.5
		C317.7,222.6,314.7,219.6,310.9,219.6L310.9,219.6z M310.9,219.6"/>
	<path class="st0" d="M338.2,219.6c-3.8,0-6.8,3.1-6.8,6.8v20.5c0,3.8,3.1,6.8,6.8,6.8c3.8,0,6.8-3.1,6.8-6.8v-20.5
		C345.1,222.6,342,219.6,338.2,219.6L338.2,219.6z M338.2,219.6"/>
	<path class="st0" d="M365.5,219.6c-3.8,0-6.8,3.1-6.8,6.8v20.5c0,3.8,3.1,6.8,6.8,6.8c3.8,0,6.8-3.1,6.8-6.8v-20.5
		C372.4,222.6,369.3,219.6,365.5,219.6L365.5,219.6z M365.5,219.6"/>
</g>
</svg>
