<?xml version="1.0" encoding="utf-8"?>
<!-- Generator: Adobe Illustrator 20.1.0, SVG Export Plug-In . SVG Version: 6.00 Build 0)  -->
<svg version="1.1" id="Capa_1" xmlns="http://www.w3.org/2000/svg" xmlns:xlink="http://www.w3.org/1999/xlink" x="0px" y="0px"
	 viewBox="0 0 251 251" style="enable-background:new 0 0 251 251;" xml:space="preserve">
<style type="text/css">
	.st0{fill:#636358;}
	.st1{fill:#515147;}
	.st2{fill:#EAEAE1;}
	.st3{fill:#C6C5AF;}
	.st4{fill:#AAA88F;}
	.st5{fill:#4C4C4C;}
	.st6{fill:#3A3A38;}
	.st7{fill:#E0DBD3;}
	.st8{fill:#72726A;}
	.st9{fill:#CCA483;}
	.st10{fill:#DBB491;}
	.st11{clip-path:url(#SVGID_2_);fill:#CCA483;}
	.st12{clip-path:url(#SVGID_2_);fill:#393C3D;}
</style>
<path class="st0" d="M239.9,202.1c-8.8-29.9-53.2-26.6-72.3-35.2c-19.1-8.6-16.2-37.4-18.6-42.4h-46.7c-2.4,5,0.6,33.8-18.6,42.4
	c-19.1,8.6-63.5,5.3-72.3,35.2c-4.9,16.5-4.6,34.5-6,52.8c0,0,60.9-1,118.9-1c58,0,121.7,1,121.7,1
	C244.7,236.7,244.8,218.6,239.9,202.1L239.9,202.1z M239.9,202.1"/>
<path class="st1" d="M239.9,202c-8.8-29.9-53.2-26.6-72.3-35.2c-19.1-8.6-16.2-37.4-18.6-42.4h-24.7c0,0-0.6,40.4,18.6,49
	c19.1,8.6,63.5,5.3,72.3,35.2c4.6,15.7,4.2,29.8,5.4,46c0.2,0,0.4,0,0.5,0c0.3,0,0.4,0,0.6,0c1,0.1,2.7,0,3.6,0c1,0,1.8,0.1,2.8,0
	c2.5,0,4.9,0,6.9,0.1c1.7,0.1,4.4,0.1,6.1,0c0.8,0,1.4,0,1.5,0c0.4,0,0.9-0.1,1.2,0c0.4,0.1,2,0,2,0
	C244.7,236.5,244.8,218.5,239.9,202L239.9,202z M240.9,204.5"/>
<path class="st2" d="M137.8,253.8c8.2-21.1,19.1-58.6,20.9-94.7H92.6c1.7,36.1,12.7,73.6,20.9,94.7c3.6,0.1,7.2,0.1,10.8,0.1
	C128.8,254,133.3,253.9,137.8,253.8L137.8,253.8z M137.8,253.8"/>
<path class="st3" d="M155.3,172.6l-16.5,15.8l-3.9-24.1L155.3,172.6z M155.3,172.6"/>
<path class="st3" d="M95.2,172.6l17.3,15.8l3.2-24.3L95.2,172.6z M95.2,172.6"/>
<path class="st3" d="M135.6,164.1h-20l-1.5,4.9l23,0.1L135.6,164.1z M135.6,164.1"/>
<path class="st4" d="M115.6,164.1l-1.5,4.9l0.9,0.6L115.6,164.1z M115.6,164.1"/>
<path class="st4" d="M137.2,169.1l-2.2-4.9l0.9,5.6L137.2,169.1z M137.2,169.1"/>
<path class="st5" d="M136.7,253.8l0.5-6.3l-4.8-63.8h-12.7l-5.6,63.8l0.5,6.4c3.3,0.1,6.5,0.1,9.8,0.1
	C128.4,254,132.6,253.9,136.7,253.8L136.7,253.8z M136.7,253.8"/>
<path class="st6" d="M119.7,184l12.6-0.3l0.3,3.6L119.7,184z M119.7,184"/>
<path class="st5" d="M110.7,166.2l29.9,0l-1.7,10.2l-6.7,7.6h-12.4l-7.4-7.6L110.7,166.2z M110.7,166.2"/>
<path class="st2" d="M115.6,164.1L95.2,153c0,0-2.7,3.8-9.4,12.8L111,184l2.1-11.8L115.6,164.1z M115.6,164.1"/>
<path class="st2" d="M134.9,164.1l20.4-11.1c0,0,2.7,3.8,9.4,12.8L139.5,184l-2.1-11.8L134.9,164.1z M134.9,164.1"/>
<path class="st7" d="M155.3,153l-20.4,11.1l1.4,4.6c1.9,2.1,4.1,3.7,6.6,4.9c2.2,1,4.8,1.8,7.6,2.6l14.2-10.2
	C158,156.8,155.3,153,155.3,153L155.3,153z M155.3,153"/>
<path class="st1" d="M184.2,199.9l-12.1-4.4l10.9-3l-10.4-23.7l-32.3,85c3.8-0.1,7.6-0.3,11.3-0.5L184.2,199.9z M184.2,199.9"/>
<path class="st1" d="M67.6,192.5l10.9,3l-12.2,4.4L99,253.3c3.7,0.2,7.5,0.4,11.3,0.5L77.9,169L67.6,192.5z M67.6,192.5"/>
<path class="st8" d="M180.7,200.6l-11.8-4.9l10.7-3.8l-7.1-23.1l-13.4-10.4l-25.4,95.5c5.5-0.1,11.1-0.3,16.6-0.6L180.7,200.6z
	 M180.7,200.6"/>
<path class="st0" d="M159.1,158.3l-5,18.7c6.8,1.5,14.6,2.8,22.3,4.5l-4-12.8L159.1,158.3z M159.1,158.3"/>
<path class="st8" d="M77.9,169l-7.1,22.8l10.7,3.8l-11.8,4.9l30.6,52.8c5.5,0.3,11,0.5,16.5,0.6l-25.5-95.6L77.9,169z M77.9,169"/>
<path class="st9" d="M177.4,111.9c-5-0.9-7.7-9.1-6.1-18.3c1.7-9.2,7.1-15.9,12.1-15c5,0.9,7.7,9.1,6.1,18.3
	C187.8,106,182.4,112.8,177.4,111.9L177.4,111.9z M177.4,111.9"/>
<path class="st10" d="M61.8,96.8c-1.7-9.2,1.1-17.4,6.1-18.3c5-0.9,10.4,5.8,12.1,15c1.7,9.2-1.1,17.4-6.1,18.3
	C68.8,112.8,63.4,106,61.8,96.8L61.8,96.8z M61.8,96.8"/>
<path class="st10" d="M176.5,38.8H74.8c0,0-28.5,116.2,50.9,127.4C205,154.9,176.5,38.8,176.5,38.8L176.5,38.8z M176.5,38.8"/>
<g>
	<defs>
		<rect id="SVGID_1_" x="5.4" y="0.6" width="240.6" height="254.4"/>
	</defs>
	<clipPath id="SVGID_2_">
		<use xlink:href="#SVGID_1_"  style="overflow:visible;"/>
	</clipPath>
	<path class="st11" d="M125.6,166.2c79.4-11.2,50.9-127.4,50.9-127.4h-11.9c3.3,48.5,7.8,74.3-10.9,102.4
		C138.8,163.4,125.6,166.2,125.6,166.2L125.6,166.2z M125.6,166.2"/>
	<path class="st12" d="M148.1,5.6c0,0-15.7-7.4-36.8-2.9C95.5,6.1,69.8,16.8,64,39.9c0,0-8.7,37.6,6.1,53.8c0,0-0.7-14.7,0.8-26.4
		c0,0,8.9,3.9,26.7,3.7c23.9-0.3,47.1-10.1,54.2-20.9c0,0-0.8,15.5-8.6,21.8c0,0,27.4-4.3,35.4-20.5c0,0,2.7,14.2,2.7,40.5
		c0,0,4.3-5.9,5.3-15.5c2.3-21.7-1.8-51.8-18.1-50.8C168.4,25.6,161.5,11.9,148.1,5.6L148.1,5.6z M148.1,5.6"/>
</g>
<path class="st9" d="M143.1,71.9c7.8-6.3,8.6-21.8,8.6-21.8c-7.1,10.8-30.3,20.6-54.2,20.9c-17.2,0.2-26.1-3.4-26.7-3.7
	c1.1,0.5,35,14.7,72.6-3.1c0,0-2,7.6-6.4,10.1c0,0,34.8-0.6,41.5-23C170.5,67.6,143.1,71.9,143.1,71.9L143.1,71.9z M143.1,71.9"/>
</svg>
